<svg xmlns="http://www.w3.org/2000/svg" version="1.1" id="Layer_1" x="0" y="0" width="500" height="630.3" viewBox="0 0 500 630.3" enable-background="new 0 0 500 630.278" xml:space="preserve"><style>.s0{stop-color:#F2EEFA;}</style><rect y="379.7" fill="#06112D" width="500" height="250.6"/><radialGradient id="SVGID_1_" cx="249.9" cy="437.4" r="253.5" gradientTransform="matrix(0.9838 0 0 0.7667 4.1609 -141.4515)" gradientUnits="userSpaceOnUse"><stop offset="0.2" stop-color="#BCC0CD"/><stop offset="0.4" stop-color="#8B92A8"/><stop offset="0.6" stop-color="#535E7F"/><stop offset="0.8" stop-color="#2B3860"/><stop offset="0.9" stop-color="#12214E"/><stop offset="1" stop-color="#091847"/></radialGradient><rect fill="url(#SVGID_1_)" width="500" height="387.8"/><g opacity="0.8"><g opacity="0.8"><path fill="#F1F2F2" d="M340.7 417.6c0 0-18.7 4.1-23.2-6.6 0 0-5.6-3.4-24.9 4 -15.2 5.8-27 1.7-27 1.7s10.9 5.6 24.9 1.9c12.8-3.3 18.7-4.5 23.8-3.5C314.3 415.1 320.1 422.7 340.7 417.6zM292.3 423.7c0 0-18.7 4.1-23.2-6.6 0 0-5.6-3.4-24.9 4 -15.2 5.8-27 1.8-27 1.8s10.9 5.6 24.9 1.9c12.8-3.3 18.7-4.5 23.8-3.5C265.9 421.2 271.7 428.8 292.3 423.7zM327.8 432.3c0 0-18.7 4.1-23.2-6.6 0 0-5.6-3.4-24.9 4 -15.2 5.8-27 1.7-27 1.7s10.9 5.6 24.9 1.9c12.8-3.3 18.7-4.5 23.8-3.5C301.4 429.9 307.2 437.5 327.8 432.3z"/></g><g opacity="0.7"><path fill="#F1F2F2" d="M410.8 399.8c0 0-12.6 2.7-15.6-4.5 0 0-3.8-2.3-16.7 2.7 -10.2 3.9-18.2 1.2-18.2 1.2s7.4 3.7 16.7 1.3c8.6-2.3 12.6-3.1 16-2.3C393.1 398.1 397 403.3 410.8 399.8zM378.3 403.9c0 0-12.6 2.7-15.6-4.5 0 0-3.8-2.3-16.7 2.7 -10.2 3.9-18.2 1.2-18.2 1.2s7.4 3.7 16.7 1.3c8.6-2.3 12.6-3.1 16-2.3C360.5 402.2 364.4 407.3 378.3 403.9zM402.2 409.7c0 0-12.6 2.7-15.6-4.5 0 0-3.8-2.3-16.7 2.7 -10.2 3.9-18.2 1.2-18.2 1.2s7.4 3.7 16.7 1.3c8.6-2.3 12.6-3.1 16-2.3C384.4 408.1 388.3 413.2 402.2 409.7z"/></g><path fill="#F1F2F2" d="M231.5 479.5c0 0-10.7 2.3-13.3-3.8 0 0-3.2-1.9-14.2 2.3 -8.7 3.3-15.4 1-15.4 1s6.3 3.2 14.2 1.1c7.3-1.9 10.7-2.6 13.6-2C216.4 478.1 219.7 482.4 231.5 479.5zM203.8 483c0 0-10.7 2.3-13.3-3.8 0 0-3.2-1.9-14.2 2.3 -8.7 3.3-15.4 1-15.4 1s6.3 3.2 14.2 1.1c7.3-1.9 10.7-2.6 13.6-2C188.7 481.6 192.1 485.9 203.8 483zM224.1 487.9c0 0-10.7 2.3-13.3-3.8 0 0-3.2-1.9-14.2 2.3 -8.7 3.3-15.4 1-15.4 1s6.3 3.2 14.2 1.1c7.3-1.9 10.7-2.6 13.6-2C209 486.5 212.4 490.9 224.1 487.9z"/><path fill="#F1F2F2" d="M367.2 488.4c0 0-10.7 2.3-13.3-3.8 0 0-3.2-1.9-14.2 2.3 -8.7 3.3-15.4 1-15.4 1s6.3 3.2 14.2 1.1c7.3-1.9 10.7-2.6 13.6-2C352.2 487 355.5 491.4 367.2 488.4zM339.6 491.9c0 0-10.7 2.3-13.3-3.8 0 0-3.2-1.9-14.2 2.3 -8.7 3.3-15.4 1-15.4 1s6.3 3.2 14.2 1.1c7.3-1.9 10.7-2.6 13.6-2C324.5 490.5 327.8 494.8 339.6 491.9zM359.9 496.9c0 0-10.7 2.3-13.3-3.8 0 0-3.2-1.9-14.2 2.3 -8.7 3.3-15.4 1-15.4 1s6.3 3.2 14.2 1.1c7.3-1.9 10.7-2.6 13.6-2C344.8 495.5 348.1 499.8 359.9 496.9z"/><g opacity="0.8"><path fill="#F1F2F2" d="M257.8 415.9c0 0-18.7 4.1-23.2-6.6 0 0-5.6-3.4-24.9 4 -15.2 5.8-27 1.7-27 1.7s10.9 5.6 24.9 1.9c12.8-3.3 18.7-4.5 23.8-3.5C231.4 413.4 237.2 421.1 257.8 415.9zM209.3 422c0 0-18.7 4.1-23.2-6.6 0 0-5.6-3.4-24.9 4 -15.2 5.8-27 1.8-27 1.8s10.9 5.6 24.9 1.9c12.8-3.3 18.7-4.5 23.8-3.5C183 419.5 188.7 427.1 209.3 422zM244.9 430.7c0 0-18.7 4.1-23.2-6.6 0 0-5.6-3.4-24.9 4 -15.2 5.8-27 1.8-27 1.8s10.9 5.6 24.9 1.9c12.8-3.3 18.7-4.5 23.8-3.5C218.5 428.2 224.3 435.8 244.9 430.7z"/></g><g opacity="0.9"><path fill="#F1F2F2" d="M342.3 467.9c0 0-18.7 4.1-23.2-6.6 0 0-5.6-3.4-24.9 4 -15.2 5.8-27 1.8-27 1.8s10.9 5.6 24.9 1.9c12.8-3.3 18.7-4.5 23.8-3.5C315.9 465.4 321.7 473 342.3 467.9zM293.8 473.9c0 0-18.7 4.1-23.2-6.6 0 0-5.6-3.4-24.9 4 -15.2 5.8-27 1.7-27 1.7s10.9 5.6 24.9 1.9c12.8-3.3 18.7-4.5 23.8-3.5C267.5 471.5 273.2 479.1 293.8 473.9zM329.4 482.6c0 0-18.7 4.1-23.2-6.6 0 0-5.6-3.4-24.9 4 -15.2 5.8-27 1.7-27 1.7s10.9 5.6 24.9 1.9c12.8-3.3 18.7-4.5 23.8-3.5C303 480.2 308.8 487.8 329.4 482.6z"/></g><g opacity="0.9"><path fill="#F1F2F2" d="M278.3 446.8c0 0-18.7 4.1-23.2-6.6 0 0-5.6-3.4-24.9 4 -15.2 5.8-27 1.8-27 1.8s10.9 5.6 24.9 1.9c12.8-3.3 18.7-4.5 23.8-3.5C251.9 444.4 257.7 452 278.3 446.8zM229.9 452.9c0 0-18.7 4.1-23.2-6.6 0 0-5.6-3.4-24.9 4 -15.2 5.8-27 1.7-27 1.7s10.9 5.6 24.9 1.9c12.8-3.3 18.7-4.5 23.8-3.5C203.5 450.4 209.3 458 229.9 452.9zM265.4 461.6c0 0-18.7 4.1-23.2-6.6 0 0-5.6-3.4-24.9 4 -15.2 5.8-27 1.7-27 1.7s10.9 5.6 24.9 1.9c12.8-3.3 18.7-4.5 23.8-3.5C239 459.1 244.8 466.7 265.4 461.6z"/></g><g opacity="0.7"><path fill="#F1F2F2" d="M198.9 396c0 0-10 2.2-12.4-3.5 0 0-3-1.8-13.2 2.1 -8.1 3.1-14.4 0.9-14.4 0.9s5.8 3 13.2 1c6.8-1.8 10-2.4 12.7-1.9C184.9 394.7 187.9 398.8 198.9 396zM173.1 399.3c0 0-10 2.2-12.4-3.5 0 0-3-1.8-13.2 2.1 -8.1 3.1-14.4 0.9-14.4 0.9s5.8 3 13.2 1c6.8-1.8 10-2.4 12.7-1.9C159.1 397.9 162.2 402 173.1 399.3zM192 403.9c0 0-10 2.2-12.4-3.5 0 0-3-1.8-13.2 2.1 -8.1 3.1-14.4 0.9-14.4 0.9s5.8 3 13.2 1c6.8-1.8 10-2.4 12.7-1.9C178 402.6 181.1 406.6 192 403.9z"/></g><g opacity="0.7"><path fill="#F1F2F2" d="M237 394.8c0 0-10 2-12.4-3.3 0 0-3-1.7-13.2 2 -8.1 2.9-14.4 0.9-14.4 0.9s5.8 2.8 13.2 1c6.8-1.7 10-2.3 12.7-1.7C223 393.6 226.1 397.3 237 394.8zM211.2 397.8c0 0-10 2-12.4-3.3 0 0-3-1.7-13.2 2 -8.1 2.9-14.4 0.9-14.4 0.9s5.8 2.8 13.2 1c6.8-1.7 10-2.3 12.7-1.7C197.2 396.6 200.3 400.4 211.2 397.8zM230.2 402.1c0 0-10 2-12.4-3.3 0 0-3-1.7-13.2 2 -8.1 2.9-14.4 0.9-14.4 0.9s5.8 2.8 13.2 1c6.8-1.7 10-2.3 12.7-1.7C216.1 400.9 219.2 404.7 230.2 402.1z"/></g><g opacity="0.7"><path fill="#F1F2F2" d="M304.3 398.4c0 0-8 2-10-3.3 0 0-2.4-1.7-10.7 1.9 -6.5 2.8-11.6 0.8-11.6 0.8s4.7 2.7 10.7 1c5.5-1.6 8-2.2 10.3-1.7C293 397.2 295.5 400.9 304.3 398.4zM283.5 401.3c0 0-8 2-10-3.3 0 0-2.4-1.7-10.7 1.9 -6.5 2.8-11.6 0.8-11.6 0.8s4.7 2.7 10.7 1c5.5-1.6 8-2.2 10.3-1.7C272.2 400.1 274.6 403.8 283.5 401.3zM298.8 405.6c0 0-8 2-10-3.3 0 0-2.4-1.7-10.7 1.9 -6.5 2.8-11.6 0.8-11.6 0.8s4.7 2.7 10.7 1c5.5-1.6 8-2.2 10.3-1.7C287.4 404.4 289.9 408.1 298.8 405.6z"/></g><g opacity="0.9"><path fill="#F1F2F2" d="M188.3 445.1c0 0-6.6 1.4-8.2-2.3 0 0-2-1.2-8.7 1.4 -5.3 2-9.5 0.6-9.5 0.6s3.8 2 8.7 0.7c4.5-1.2 6.6-1.6 8.4-1.2C179 444.2 181 446.9 188.3 445.1zM171.2 447.2c0 0-6.6 1.4-8.2-2.3 0 0-2-1.2-8.7 1.4 -5.3 2-9.5 0.6-9.5 0.6s3.8 2 8.7 0.7c4.5-1.2 6.6-1.6 8.4-1.2C162 446.3 164 449 171.2 447.2zM183.7 450.2c0 0-6.6 1.4-8.2-2.3 0 0-2-1.2-8.7 1.4 -5.3 2-9.5 0.6-9.5 0.6s3.8 2 8.7 0.7c4.5-1.2 6.6-1.6 8.4-1.2C174.5 449.4 176.5 452 183.7 450.2z"/></g><path fill="#F1F2F2" d="M374.3 441c0 0-6.6 1.4-8.2-2.3 0 0-2-1.2-8.7 1.4 -5.3 2-9.5 0.6-9.5 0.6s3.8 2 8.7 0.7c4.5-1.2 6.6-1.6 8.4-1.2C365 440.1 367 442.8 374.3 441zM357.3 443.1c0 0-6.6 1.4-8.2-2.3 0 0-2-1.2-8.7 1.4 -5.3 2-9.5 0.6-9.5 0.6s3.8 2 8.7 0.7c4.5-1.2 6.6-1.6 8.4-1.2C348 442.3 350 444.9 357.3 443.1zM369.7 446.2c0 0-6.6 1.4-8.2-2.3 0 0-2-1.2-8.7 1.4 -5.3 2-9.5 0.6-9.5 0.6s3.8 2 8.7 0.7c4.5-1.2 6.6-1.6 8.4-1.2C360.5 445.3 362.5 448 369.7 446.2z"/><path fill="#F1F2F2" d="M402.9 436.7c0 0-4.5 1-5.6-1.6 0 0-1.4-0.8-6 1 -3.7 1.4-6.5 0.4-6.5 0.4s2.6 1.3 6 0.5c3.1-0.8 4.5-1.1 5.8-0.8C396.5 436.1 397.9 437.9 402.9 436.7zM391.2 438.1c0 0-4.5 1-5.6-1.6 0 0-1.4-0.8-6 1 -3.7 1.4-6.5 0.4-6.5 0.4s2.6 1.3 6 0.5c3.1-0.8 4.5-1.1 5.8-0.8C384.8 437.6 386.2 439.4 391.2 438.1zM399.8 440.2c0 0-4.5 1-5.6-1.6 0 0-1.4-0.8-6 1 -3.7 1.4-6.5 0.4-6.5 0.4s2.6 1.3 6 0.5c3.1-0.8 4.5-1.1 5.8-0.8C393.4 439.6 394.8 441.5 399.8 440.2z"/><g opacity="0.9"><path fill="#F1F2F2" d="M137.3 447.5c0 0-4.5 1-5.6-1.6 0 0-1.4-0.8-6 1 -3.7 1.4-6.5 0.4-6.5 0.4s2.6 1.3 6 0.5c3.1-0.8 4.5-1.1 5.8-0.8C131 446.9 132.4 448.8 137.3 447.5zM125.6 449c0 0-4.5 1-5.6-1.6 0 0-1.4-0.8-6 1 -3.7 1.4-6.5 0.4-6.5 0.4s2.6 1.3 6 0.5c3.1-0.8 4.5-1.1 5.8-0.8C119.3 448.4 120.7 450.2 125.6 449zM134.2 451.1c0 0-4.5 1-5.6-1.6 0 0-1.4-0.8-6 1 -3.7 1.4-6.5 0.4-6.5 0.4s2.6 1.3 6 0.5c3.1-0.8 4.5-1.1 5.8-0.8C127.8 450.5 129.2 452.3 134.2 451.1z"/></g><path fill="#F1F2F2" d="M172.9 479.3c0 0-4.5 1-5.6-1.6 0 0-1.4-0.8-6 1 -3.7 1.4-6.5 0.4-6.5 0.4s2.6 1.3 6 0.5c3.1-0.8 4.5-1.1 5.8-0.8C166.5 478.7 167.9 480.6 172.9 479.3zM161.2 480.8c0 0-4.5 1-5.6-1.6 0 0-1.4-0.8-6 1 -3.7 1.4-6.5 0.4-6.5 0.4s2.6 1.3 6 0.5c3.1-0.8 4.5-1.1 5.8-0.8C154.8 480.2 156.2 482 161.2 480.8zM169.8 482.9c0 0-4.5 1-5.6-1.6 0 0-1.4-0.8-6 1 -3.7 1.4-6.5 0.4-6.5 0.4s2.6 1.3 6 0.5c3.1-0.8 4.5-1.1 5.8-0.8C163.4 482.3 164.8 484.1 169.8 482.9z"/><path fill="#F1F2F2" d="M353.7 477.3c0 0-4.5 1-5.6-1.6 0 0-1.4-0.8-6 1 -3.7 1.4-6.5 0.4-6.5 0.4s2.6 1.3 6 0.5c3.1-0.8 4.5-1.1 5.8-0.8C347.3 476.7 348.7 478.5 353.7 477.3zM342 478.8c0 0-4.5 1-5.6-1.6 0 0-1.4-0.8-6 1 -3.7 1.4-6.5 0.4-6.5 0.4s2.6 1.3 6 0.5c3.1-0.8 4.5-1.1 5.8-0.8C335.6 478.2 337 480 342 478.8zM350.5 480.9c0 0-4.5 1-5.6-1.6 0 0-1.4-0.8-6 1 -3.7 1.4-6.5 0.4-6.5 0.4s2.6 1.3 6 0.5c3.1-0.8 4.5-1.1 5.8-0.8C344.2 480.3 345.6 482.1 350.5 480.9z"/><path fill="#F1F2F2" d="M397.4 478c0 0-2.7 0.6-3.4-1 0 0-0.8-0.5-3.6 0.6 -2.2 0.8-3.9 0.3-3.9 0.3s1.6 0.8 3.6 0.3c1.9-0.5 2.7-0.7 3.5-0.5C393.6 477.6 394.4 478.7 397.4 478zM390.4 478.8c0 0-2.7 0.6-3.4-1 0 0-0.8-0.5-3.6 0.6 -2.2 0.8-3.9 0.3-3.9 0.3s1.6 0.8 3.6 0.3c1.9-0.5 2.7-0.7 3.5-0.5C386.5 478.5 387.4 479.6 390.4 478.8zM395.5 480.1c0 0-2.7 0.6-3.4-1 0 0-0.8-0.5-3.6 0.6 -2.2 0.8-3.9 0.3-3.9 0.3s1.6 0.8 3.6 0.3c1.9-0.5 2.7-0.7 3.5-0.5C391.7 479.7 392.5 480.8 395.5 480.1z"/><path fill="#F1F2F2" d="M126 492.1c0 0-2.7 0.6-3.4-1 0 0-0.8-0.5-3.6 0.6 -2.2 0.8-3.9 0.3-3.9 0.3s1.6 0.8 3.6 0.3c1.9-0.5 2.7-0.7 3.5-0.5C122.2 491.7 123 492.8 126 492.1zM119 493c0 0-2.7 0.6-3.4-1 0 0-0.8-0.5-3.6 0.6 -2.2 0.8-3.9 0.3-3.9 0.3s1.6 0.8 3.6 0.3c1.9-0.5 2.7-0.7 3.5-0.5C115.1 492.6 116 493.7 119 493zM124.1 494.2c0 0-2.7 0.6-3.4-1 0 0-0.8-0.5-3.6 0.6 -2.2 0.8-3.9 0.3-3.9 0.3s1.6 0.8 3.6 0.3c1.9-0.5 2.7-0.7 3.5-0.5C120.3 493.9 121.1 495 124.1 494.2z"/><path fill="#F1F2F2" d="M184.5 490.7c0 0-7 1.5-8.7-2.5 0 0-2.1-1.3-9.3 1.5 -5.7 2.2-10.1 0.7-10.1 0.7s4.1 2.1 9.3 0.7c4.8-1.2 7-1.7 8.9-1.3C174.7 489.8 176.8 492.6 184.5 490.7zM166.4 493c0 0-7 1.5-8.7-2.5 0 0-2.1-1.3-9.3 1.5 -5.7 2.2-10.1 0.7-10.1 0.7s4.1 2.1 9.3 0.7c4.8-1.2 7-1.7 8.9-1.3C156.6 492 158.7 494.9 166.4 493zM179.7 496.2c0 0-7 1.5-8.7-2.5 0 0-2.1-1.3-9.3 1.5 -5.7 2.2-10.1 0.7-10.1 0.7s4.1 2.1 9.3 0.7c4.8-1.3 7-1.7 8.9-1.3C169.8 495.3 172 498.1 179.7 496.2z"/><g opacity="0.8"><path fill="#F1F2F2" d="M93.9 433.2c0 0-4.5 1-5.6-1.6 0 0-1.4-0.8-6 1 -3.7 1.4-6.5 0.4-6.5 0.4s2.6 1.3 6 0.5c3.1-0.8 4.5-1.1 5.8-0.8C87.5 432.6 88.9 434.5 93.9 433.2zM82.2 434.7c0 0-4.5 1-5.6-1.6 0 0-1.4-0.8-6 1 -3.7 1.4-6.5 0.4-6.5 0.4s2.6 1.3 6 0.5c3.1-0.8 4.5-1.1 5.8-0.8C75.8 434.1 77.2 435.9 82.2 434.7zM90.8 436.8c0 0-4.5 1-5.6-1.6 0 0-1.4-0.8-6 1 -3.7 1.4-6.5 0.4-6.5 0.4s2.6 1.3 6 0.5c3.1-0.8 4.5-1.1 5.8-0.8C84.4 436.2 85.8 438 90.8 436.8z"/></g><g opacity="0.9"><path fill="#F1F2F2" d="M129.5 465c0 0-4.5 1-5.6-1.6 0 0-1.4-0.8-6 1 -3.7 1.4-6.5 0.4-6.5 0.4s2.6 1.3 6 0.5c3.1-0.8 4.5-1.1 5.8-0.8C123.1 464.4 124.5 466.2 129.5 465zM117.8 466.5c0 0-4.5 1-5.6-1.6 0 0-1.4-0.8-6 1 -3.7 1.4-6.5 0.4-6.5 0.4s2.6 1.3 6 0.5c3.1-0.8 4.5-1.1 5.8-0.8C111.4 465.9 112.8 467.7 117.8 466.5zM126.3 468.6c0 0-4.5 1-5.6-1.6 0 0-1.4-0.8-6 1 -3.7 1.4-6.5 0.4-6.5 0.4s2.6 1.3 6 0.5c3.1-0.8 4.5-1.1 5.8-0.8C120 468 121.4 469.8 126.3 468.6z"/></g><path fill="#F1F2F2" d="M82.5 477.8c0 0-2.7 0.6-3.4-1 0 0-0.8-0.5-3.6 0.6 -2.2 0.8-3.9 0.3-3.9 0.3s1.6 0.8 3.6 0.3c1.9-0.5 2.7-0.7 3.5-0.5C78.7 477.4 79.5 478.5 82.5 477.8zM75.5 478.7c0 0-2.7 0.6-3.4-1 0 0-0.8-0.5-3.6 0.6 -2.2 0.8-3.9 0.3-3.9 0.3s1.6 0.8 3.6 0.3c1.9-0.5 2.7-0.7 3.5-0.5C71.7 478.3 72.5 479.4 75.5 478.7zM80.7 479.9c0 0-2.7 0.6-3.4-1 0 0-0.8-0.5-3.6 0.6 -2.2 0.8-3.9 0.3-3.9 0.3s1.6 0.8 3.6 0.3c1.9-0.5 2.7-0.7 3.5-0.5C76.8 479.6 77.7 480.7 80.7 479.9z"/><g opacity="0.8"><path fill="#F1F2F2" d="M61.7 411.9c0 0-4.5 1-5.6-1.6 0 0-1.4-0.8-6 1 -3.7 1.4-6.5 0.4-6.5 0.4s2.6 1.3 6 0.5c3.1-0.8 4.5-1.1 5.8-0.8C55.4 411.3 56.8 413.1 61.7 411.9zM50 413.4c0 0-4.5 1-5.6-1.6 0 0-1.4-0.8-6 1 -3.7 1.4-6.5 0.4-6.5 0.4s2.6 1.3 6 0.5c3.1-0.8 4.5-1.1 5.8-0.8C43.7 412.8 45.1 414.6 50 413.4zM58.6 415.5c0 0-4.5 1-5.6-1.6 0 0-1.4-0.8-6 1 -3.7 1.4-6.5 0.4-6.5 0.4s2.6 1.3 6 0.5c3.1-0.8 4.5-1.1 5.8-0.8C52.2 414.9 53.6 416.7 58.6 415.5z"/></g><g opacity="0.8"><path fill="#F1F2F2" d="M97.3 443.7c0 0-4.5 1-5.6-1.6 0 0-1.4-0.8-6 1 -3.7 1.4-6.5 0.4-6.5 0.4s2.6 1.3 6 0.5c3.1-0.8 4.5-1.1 5.8-0.8C90.9 443.1 92.3 444.9 97.3 443.7zM85.6 445.1c0 0-4.5 1-5.6-1.6 0 0-1.4-0.8-6 1 -3.7 1.4-6.5 0.4-6.5 0.4s2.6 1.3 6 0.5c3.1-0.8 4.5-1.1 5.8-0.8C79.2 444.5 80.6 446.4 85.6 445.1zM94.2 447.2c0 0-4.5 1-5.6-1.6 0 0-1.4-0.8-6 1 -3.7 1.4-6.5 0.4-6.5 0.4s2.6 1.3 6 0.5c3.1-0.8 4.5-1.1 5.8-0.8C87.8 446.6 89.2 448.5 94.2 447.2z"/></g><path fill="#F1F2F2" d="M50.4 456.5c0 0-2.7 0.6-3.4-1 0 0-0.8-0.5-3.6 0.6 -2.2 0.8-3.9 0.3-3.9 0.3s1.6 0.8 3.6 0.3c1.9-0.5 2.7-0.7 3.5-0.5C46.6 456.1 47.4 457.2 50.4 456.5zM43.4 457.3c0 0-2.7 0.6-3.4-1 0 0-0.8-0.5-3.6 0.6 -2.2 0.8-3.9 0.3-3.9 0.3s1.6 0.8 3.6 0.3c1.9-0.5 2.7-0.7 3.5-0.5C39.5 457 40.4 458.1 43.4 457.3zM48.5 458.6c0 0-2.7 0.6-3.4-1 0 0-0.8-0.5-3.6 0.6 -2.2 0.8-3.9 0.3-3.9 0.3s1.6 0.8 3.6 0.3c1.9-0.5 2.7-0.7 3.5-0.5C44.7 458.2 45.5 459.3 48.5 458.6z"/><path fill="#F1F2F2" d="M418.9 421.9c0 0-4.5 1-5.6-1.6 0 0-1.4-0.8-6 1 -3.7 1.4-6.5 0.4-6.5 0.4s2.6 1.3 6 0.5c3.1-0.8 4.5-1.1 5.8-0.8C412.5 421.3 413.9 423.1 418.9 421.9zM407.1 423.4c0 0-4.5 1-5.6-1.6 0 0-1.4-0.8-6 1 -3.7 1.4-6.5 0.4-6.5 0.4s2.6 1.3 6 0.5c3.1-0.8 4.5-1.1 5.8-0.8C400.8 422.8 402.2 424.6 407.1 423.4zM415.7 425.5c0 0-4.5 1-5.6-1.6 0 0-1.4-0.8-6 1 -3.7 1.4-6.5 0.4-6.5 0.4s2.6 1.3 6 0.5c3.1-0.8 4.5-1.1 5.8-0.8C409.4 424.9 410.8 426.7 415.7 425.5z"/><g opacity="0.9"><path fill="#F1F2F2" d="M454.4 453.7c0 0-4.5 1-5.6-1.6 0 0-1.4-0.8-6 1 -3.7 1.4-6.5 0.4-6.5 0.4s2.6 1.3 6 0.5c3.1-0.8 4.5-1.1 5.8-0.8C448.1 453.1 449.5 454.9 454.4 453.7zM442.7 455.2c0 0-4.5 1-5.6-1.6 0 0-1.4-0.8-6 1 -3.7 1.4-6.5 0.4-6.5 0.4s2.6 1.3 6 0.5c3.1-0.8 4.5-1.1 5.8-0.8C436.3 454.6 437.7 456.4 442.7 455.2zM451.3 457.3c0 0-4.5 1-5.6-1.6 0 0-1.4-0.8-6 1 -3.7 1.4-6.5 0.4-6.5 0.4s2.6 1.3 6 0.5c3.1-0.8 4.5-1.1 5.8-0.8C444.9 456.7 446.3 458.5 451.3 457.3z"/></g><g opacity="0.9"><path fill="#F1F2F2" d="M407.5 466.5c0 0-2.7 0.6-3.4-1 0 0-0.8-0.5-3.6 0.6 -2.2 0.8-3.9 0.3-3.9 0.3s1.6 0.8 3.6 0.3c1.9-0.5 2.7-0.7 3.5-0.5C403.7 466.1 404.5 467.2 407.5 466.5zM400.5 467.3c0 0-2.7 0.6-3.4-1 0 0-0.8-0.5-3.6 0.6 -2.2 0.8-3.9 0.3-3.9 0.3s1.6 0.8 3.6 0.3c1.9-0.5 2.7-0.7 3.5-0.5C396.7 467 397.5 468.1 400.5 467.3zM405.6 468.6c0 0-2.7 0.6-3.4-1 0 0-0.8-0.5-3.6 0.6 -2.2 0.8-3.9 0.3-3.9 0.3s1.6 0.8 3.6 0.3c1.9-0.5 2.7-0.7 3.5-0.5C401.8 468.2 402.6 469.4 405.6 468.6z"/></g><g opacity="0.7"><path fill="#F1F2F2" d="M437 396c0 0-4.5 1-5.6-1.6 0 0-1.4-0.8-6 1 -3.7 1.4-6.5 0.4-6.5 0.4s2.6 1.3 6 0.5c3.1-0.8 4.5-1.1 5.8-0.8C430.6 395.4 432 397.2 437 396zM425.3 397.4c0 0-4.5 1-5.6-1.6 0 0-1.4-0.8-6 1 -3.7 1.4-6.5 0.4-6.5 0.4s2.6 1.3 6 0.5c3.1-0.8 4.5-1.1 5.8-0.8C418.9 396.8 420.3 398.7 425.3 397.4zM433.9 399.5c0 0-4.5 1-5.6-1.6 0 0-1.4-0.8-6 1 -3.7 1.4-6.5 0.4-6.5 0.4s2.6 1.3 6 0.5c3.1-0.8 4.5-1.1 5.8-0.8C427.5 398.9 428.9 400.8 433.9 399.5z"/></g><path fill="#F1F2F2" d="M472.6 427.7c0 0-4.5 1-5.6-1.6 0 0-1.4-0.8-6 1 -3.7 1.4-6.5 0.4-6.5 0.4s2.6 1.3 6 0.5c3.1-0.8 4.5-1.1 5.8-0.8C466.2 427.1 467.6 429 472.6 427.7zM460.9 429.2c0 0-4.5 1-5.6-1.6 0 0-1.4-0.8-6 1 -3.7 1.4-6.5 0.4-6.5 0.4s2.6 1.3 6 0.5c3.1-0.8 4.5-1.1 5.8-0.8C454.5 428.6 455.9 430.4 460.9 429.2zM469.4 431.3c0 0-4.5 1-5.6-1.6 0 0-1.4-0.8-6 1 -3.7 1.4-6.5 0.4-6.5 0.4s2.6 1.3 6 0.5c3.1-0.8 4.5-1.1 5.8-0.8C463.1 430.7 464.5 432.5 469.4 431.3z"/><path fill="#F1F2F2" d="M425.6 440.5c0 0-2.7 0.6-3.4-1 0 0-0.8-0.5-3.6 0.6 -2.2 0.8-3.9 0.3-3.9 0.3s1.6 0.8 3.6 0.3c1.9-0.5 2.7-0.7 3.5-0.5C421.8 440.2 422.7 441.3 425.6 440.5zM418.6 441.4c0 0-2.7 0.6-3.4-1 0 0-0.8-0.5-3.6 0.6 -2.2 0.8-3.9 0.3-3.9 0.3s1.6 0.8 3.6 0.3c1.9-0.5 2.7-0.7 3.5-0.5C414.8 441 415.6 442.1 418.6 441.4zM423.8 442.7c0 0-2.7 0.6-3.4-1 0 0-0.8-0.5-3.6 0.6 -2.2 0.8-3.9 0.3-3.9 0.3s1.6 0.8 3.6 0.3c1.9-0.5 2.7-0.7 3.5-0.5C419.9 442.3 420.8 443.4 423.8 442.7z"/><g opacity="0.9"><path fill="#F1F2F2" d="M429.6 470.7c0 0-4.5 1-5.6-1.6 0 0-1.4-0.8-6 1 -3.7 1.4-6.5 0.4-6.5 0.4s2.6 1.3 6 0.5c3.1-0.8 4.5-1.1 5.8-0.8C423.3 470.1 424.7 471.9 429.6 470.7zM417.9 472.1c0 0-4.5 1-5.6-1.6 0 0-1.4-0.8-6 1 -3.7 1.4-6.5 0.4-6.5 0.4s2.6 1.3 6 0.5c3.1-0.8 4.5-1.1 5.8-0.8C411.5 471.5 412.9 473.4 417.9 472.1zM426.5 474.2c0 0-4.5 1-5.6-1.6 0 0-1.4-0.8-6 1 -3.7 1.4-6.5 0.4-6.5 0.4s2.6 1.3 6 0.5c3.1-0.8 4.5-1.1 5.8-0.8C420.1 473.6 421.5 475.5 426.5 474.2z"/></g><path fill="#F1F2F2" d="M447.4 491.7c0 0-4.5 1-5.6-1.6 0 0-1.4-0.8-6 1 -3.7 1.4-6.5 0.4-6.5 0.4s2.6 1.3 6 0.5c3.1-0.8 4.5-1.1 5.8-0.8C441 491.1 442.4 492.9 447.4 491.7zM435.7 493.1c0 0-4.5 1-5.6-1.6 0 0-1.4-0.8-6 1 -3.7 1.4-6.5 0.4-6.5 0.4s2.6 1.3 6 0.5c3.1-0.8 4.5-1.1 5.8-0.8C429.3 492.6 430.7 494.4 435.7 493.1zM444.3 495.2c0 0-4.5 1-5.6-1.6 0 0-1.4-0.8-6 1 -3.7 1.4-6.5 0.4-6.5 0.4s2.6 1.3 6 0.5c3.1-0.8 4.5-1.1 5.8-0.8C437.9 494.7 439.3 496.5 444.3 495.2z"/><path fill="#F1F2F2" d="M474.9 475.3c0 0-2.7 0.6-3.4-1 0 0-0.8-0.5-3.6 0.6 -2.2 0.8-3.9 0.3-3.9 0.3s1.6 0.8 3.6 0.3c1.9-0.5 2.7-0.7 3.5-0.5C471.1 474.9 471.9 476 474.9 475.3zM467.9 476.1c0 0-2.7 0.6-3.4-1 0 0-0.8-0.5-3.6 0.6 -2.2 0.8-3.9 0.3-3.9 0.3s1.6 0.8 3.6 0.3c1.9-0.5 2.7-0.7 3.5-0.5C464.1 475.8 464.9 476.9 467.9 476.1zM473.1 477.4c0 0-2.7 0.6-3.4-1 0 0-0.8-0.5-3.6 0.6 -2.2 0.8-3.9 0.3-3.9 0.3s1.6 0.8 3.6 0.3c1.9-0.5 2.7-0.7 3.5-0.5C469.2 477 470.1 478.1 473.1 477.4z"/><g opacity="0.8"><path fill="#F1F2F2" d="M395 425.2c0 0-10.7 2.3-13.3-3.8 0 0-3.2-1.9-14.2 2.3 -8.7 3.3-15.5 1-15.5 1s6.3 3.2 14.2 1.1c7.4-1.9 10.7-2.6 13.7-2C379.9 423.8 383.2 428.2 395 425.2zM367.3 428.7c0 0-10.7 2.3-13.3-3.8 0 0-3.2-1.9-14.2 2.3 -8.7 3.3-15.5 1-15.5 1s6.3 3.2 14.2 1.1c7.4-1.9 10.7-2.6 13.7-2C352.2 427.3 355.5 431.6 367.3 428.7zM387.6 433.7c0 0-10.7 2.3-13.3-3.8 0 0-3.2-1.9-14.2 2.3 -8.7 3.3-15.5 1-15.5 1s6.3 3.2 14.2 1.1c7.4-1.9 10.7-2.6 13.6-2C372.5 432.3 375.9 436.6 387.6 433.7z"/></g><g opacity="0.9"><path fill="#F1F2F2" d="M395.6 458.7c0 0-10.7 2.3-13.3-3.8 0 0-3.2-1.9-14.2 2.3 -8.7 3.3-15.5 1-15.5 1s6.3 3.2 14.2 1.1c7.4-1.9 10.7-2.6 13.7-2C380.5 457.2 383.8 461.6 395.6 458.7zM367.9 462.1c0 0-10.7 2.3-13.3-3.8 0 0-3.2-1.9-14.2 2.3 -8.7 3.3-15.5 1-15.5 1s6.3 3.2 14.2 1.1c7.4-1.9 10.7-2.6 13.6-2C352.8 460.7 356.1 465.1 367.9 462.1zM388.2 467.1c0 0-10.7 2.3-13.3-3.8 0 0-3.2-1.9-14.2 2.3 -8.7 3.3-15.5 1-15.5 1s6.3 3.2 14.2 1.1c7.4-1.9 10.7-2.6 13.7-2C373.1 465.7 376.4 470 388.2 467.1z"/></g><g opacity="0.7"><path fill="#F1F2F2" d="M151.5 402.3c0 0-12.2 2.7-15.2-4.3 0 0-3.7-2.2-16.3 2.6 -9.9 3.8-17.6 1.1-17.6 1.1s7.2 3.6 16.3 1.3c8.4-2.2 12.2-3 15.6-2.3C134.2 400.7 138 405.6 151.5 402.3zM119.8 406.2c0 0-12.2 2.7-15.2-4.3 0 0-3.7-2.2-16.3 2.6 -9.9 3.8-17.6 1.1-17.6 1.1s7.1 3.6 16.3 1.3c8.4-2.2 12.2-3 15.6-2.3C102.6 404.6 106.4 409.6 119.8 406.2zM143 411.9c0 0-12.2 2.7-15.2-4.3 0 0-3.7-2.2-16.3 2.6 -9.9 3.8-17.6 1.1-17.6 1.1s7.1 3.6 16.3 1.3c8.4-2.2 12.2-3 15.6-2.3C125.8 410.3 129.6 415.3 143 411.9z"/></g><path fill="#F1F2F2" d="M186.2 410.6c0 0-2.7 0.6-3.4-1 0 0-0.8-0.5-3.6 0.6 -2.2 0.8-3.9 0.3-3.9 0.3s1.6 0.8 3.6 0.3c1.9-0.5 2.7-0.7 3.5-0.5C182.4 410.2 183.2 411.3 186.2 410.6zM179.2 411.4c0 0-2.7 0.6-3.4-1 0 0-0.8-0.5-3.6 0.6 -2.2 0.8-3.9 0.3-3.9 0.3s1.6 0.8 3.6 0.3c1.9-0.5 2.7-0.7 3.5-0.5C175.4 411.1 176.2 412.2 179.2 411.4zM184.4 412.7c0 0-2.7 0.6-3.4-1 0 0-0.8-0.5-3.6 0.6 -2.2 0.8-3.9 0.3-3.9 0.3s1.6 0.8 3.6 0.3c1.9-0.5 2.7-0.7 3.5-0.5C180.5 412.3 181.4 413.4 184.4 412.7z"/><g opacity="0.7"><path fill="#F1F2F2" d="M241.5 395.1c0 0-2.7 0.6-3.4-1 0 0-0.8-0.5-3.6 0.6 -2.2 0.8-3.9 0.3-3.9 0.3s1.6 0.8 3.6 0.3c1.9-0.5 2.7-0.7 3.5-0.5C237.7 394.8 238.5 395.9 241.5 395.1z"/></g></g><g opacity="0.9"><path fill="#F1F2F2" d="M146.3 526.9c0 0 19.6 3.8 24-7.6 0 0 5.8-3.7 26 3.5 16 5.7 28.1 1.1 28.1 1.1s-11.2 6.1-25.8 2.7c-13.5-3.2-19.6-4.3-24.9-3C173.6 523.5 167.8 531.7 146.3 526.9zM196.8 531.9c0 0 19.6 3.8 24-7.6 0 0 5.8-3.7 26 3.5 16 5.7 28.1 1.1 28.1 1.1s-11.2 6.1-25.8 2.7c-13.5-3.2-19.6-4.3-24.9-3C224.2 528.6 218.4 536.8 196.8 531.9zM160.1 542.1c0 0 19.6 3.8 24-7.6 0 0 5.8-3.7 26 3.5 16 5.7 28.1 1.1 28.1 1.1s-11.2 6.1-25.8 2.7c-13.5-3.2-19.6-4.3-24.9-3C187.5 538.7 181.7 546.9 160.1 542.1z"/><path fill="#F1F2F2" d="M160.3 561.1c0 0 19.6 3.8 24-7.6 0 0 5.8-3.7 26 3.5 16 5.7 28.1 1.1 28.1 1.1s-11.2 6.1-25.8 2.7c-13.5-3.2-19.6-4.3-24.9-3C187.7 557.8 181.9 566 160.3 561.1zM210.9 566.2c0 0 19.6 3.8 24-7.6 0 0 5.8-3.7 26 3.5 16 5.7 28.1 1.1 28.1 1.1s-11.2 6.1-25.8 2.7c-13.5-3.2-19.6-4.3-24.9-3C238.3 562.9 232.5 571.1 210.9 566.2zM174.1 576.3c0 0 19.6 3.8 24-7.6 0 0 5.8-3.7 26 3.5 16 5.7 28.1 1.1 28.1 1.1s-11.2 6.1-25.8 2.7c-13.5-3.2-19.6-4.3-24.9-3C201.5 573 195.7 581.2 174.1 576.3z"/><path fill="#F1F2F2" d="M82.2 516.3c0 0 11.2 2.2 13.7-4.4 0 0 3.3-2.1 14.9 2 9.1 3.3 16.1 0.6 16.1 0.6s-6.4 3.5-14.8 1.5c-7.7-1.8-11.2-2.5-14.2-1.7C97.9 514.4 94.5 519.1 82.2 516.3zM111.1 519.2c0 0 11.2 2.2 13.7-4.4 0 0 3.3-2.1 14.9 2 9.1 3.3 16.1 0.6 16.1 0.6s-6.4 3.5-14.8 1.5c-7.7-1.8-11.2-2.5-14.2-1.7C126.8 517.3 123.4 522 111.1 519.2zM90.1 525c0 0 11.2 2.2 13.7-4.4 0 0 3.3-2.1 14.9 2 9.1 3.3 16.1 0.6 16.1 0.6s-6.4 3.5-14.8 1.5c-7.7-1.8-11.2-2.5-14.2-1.7C105.8 523.1 102.4 527.8 90.1 525z"/><path fill="#F1F2F2" d="M241.9 528.7c0 0 19.6 3.8 24-7.6 0 0 5.8-3.7 26 3.5 16 5.7 28.1 1.1 28.1 1.1s-11.2 6.1-25.8 2.7c-13.5-3.2-19.6-4.3-24.9-3C269.3 525.4 263.5 533.6 241.9 528.7zM292.5 533.8c0 0 19.6 3.8 24-7.6 0 0 5.8-3.7 26 3.5 16 5.7 28.1 1.1 28.1 1.1s-11.2 6.1-25.8 2.7c-13.5-3.2-19.6-4.3-24.9-3C319.9 530.5 314.1 538.7 292.5 533.8zM255.8 544c0 0 19.6 3.8 24-7.6 0 0 5.8-3.7 26 3.5 16 5.7 28.1 1.1 28.1 1.1s-11.2 6.1-25.8 2.7c-13.5-3.2-19.6-4.3-24.9-3C283.2 540.6 277.4 548.8 255.8 544z"/><path fill="#F1F2F2" d="M253.4 563.9c0 0 19.6 3.8 24-7.6 0 0 5.8-3.7 26 3.5 16 5.7 28.1 1.1 28.1 1.1s-11.2 6.2-25.8 2.7c-13.5-3.2-19.6-4.3-24.9-3C280.8 560.6 275 568.7 253.4 563.9zM304 569c0 0 19.6 3.8 24-7.6 0 0 5.8-3.7 26 3.5 16 5.7 28.1 1.1 28.1 1.1s-11.2 6.1-25.8 2.7c-13.5-3.2-19.6-4.3-24.9-3C331.4 565.7 325.5 573.8 304 569zM267.2 579.1c0 0 19.6 3.8 24-7.6 0 0 5.8-3.7 26 3.5 16 5.7 28.1 1.1 28.1 1.1s-11.2 6.1-25.8 2.7c-13.5-3.2-19.6-4.3-24.9-3C294.6 575.8 288.8 583.9 267.2 579.1z"/><path fill="#F1F2F2" d="M302.7 506.2c0 0 10.4 2 12.8-4.1 0 0 3.1-2 13.8 1.9 8.5 3 15 0.6 15 0.6s-6 3.3-13.7 1.4c-7.2-1.7-10.4-2.3-13.3-1.6C317.2 504.4 314.2 508.8 302.7 506.2zM329.6 508.9c0 0 10.4 2 12.8-4.1 0 0 3.1-2 13.8 1.9 8.5 3 15 0.6 15 0.6s-6 3.3-13.7 1.4c-7.2-1.7-10.4-2.3-13.3-1.6C344.2 507.2 341.1 511.5 329.6 508.9zM310 514.3c0 0 10.4 2 12.8-4.1 0 0 3.1-2 13.8 1.9 8.5 3 15 0.6 15 0.6s-6 3.3-13.7 1.4c-7.2-1.7-10.4-2.3-13.3-1.6C324.6 512.5 321.5 516.9 310 514.3z"/><path fill="#F1F2F2" d="M310.7 557.7c0 0 6.9 1.3 8.4-2.7 0 0 2-1.3 9.1 1.2 5.6 2 9.9 0.4 9.9 0.4s-3.9 2.2-9.1 0.9c-4.7-1.1-6.9-1.5-8.7-1.1C320.3 556.5 318.3 559.4 310.7 557.7zM328.5 559.5c0 0 6.9 1.3 8.4-2.7 0 0 2-1.3 9.1 1.2 5.6 2 9.9 0.4 9.9 0.4s-3.9 2.2-9.1 0.9c-4.7-1.1-6.9-1.5-8.7-1.1C338.1 558.3 336.1 561.2 328.5 559.5zM315.6 563c0 0 6.9 1.3 8.4-2.7 0 0 2-1.3 9.1 1.2 5.6 2 9.9 0.4 9.9 0.4s-3.9 2.2-9.1 0.9c-4.7-1.1-6.9-1.5-8.7-1.1C325.2 561.9 323.2 564.8 315.6 563z"/><path fill="#F1F2F2" d="M121.4 558.3c0 0 6.9 1.3 8.4-2.7 0 0 2-1.3 9.1 1.2 5.6 2 9.9 0.4 9.9 0.4s-3.9 2.2-9.1 0.9c-4.7-1.1-6.9-1.5-8.7-1.1C131 557.2 128.9 560 121.4 558.3zM139.1 560.1c0 0 6.9 1.3 8.4-2.7 0 0 2-1.3 9.1 1.2 5.6 2 9.9 0.4 9.9 0.4s-3.9 2.2-9.1 0.9c-4.7-1.1-6.9-1.5-8.7-1.1C148.7 559 146.7 561.8 139.1 560.1zM126.2 563.7c0 0 6.9 1.3 8.4-2.7 0 0 2-1.3 9.1 1.2 5.6 2 9.9 0.4 9.9 0.4s-3.9 2.2-9.1 0.9c-4.7-1.1-6.9-1.5-8.7-1.1C135.8 562.5 133.8 565.4 126.2 563.7z"/><path fill="#F1F2F2" d="M91.5 554.5c0 0 4.7 0.9 5.8-1.8 0 0 1.4-0.9 6.3 0.9 3.9 1.4 6.8 0.3 6.8 0.3s-2.7 1.5-6.2 0.7c-3.3-0.8-4.7-1-6-0.7C98.1 553.7 96.7 555.7 91.5 554.5zM103.7 555.8c0 0 4.7 0.9 5.8-1.8 0 0 1.4-0.9 6.3 0.8 3.9 1.4 6.8 0.3 6.8 0.3s-2.7 1.5-6.2 0.7c-3.3-0.8-4.7-1-6-0.7C110.3 555 108.9 556.9 103.7 555.8zM94.8 558.2c0 0 4.7 0.9 5.8-1.8 0 0 1.4-0.9 6.3 0.9 3.9 1.4 6.8 0.3 6.8 0.3s-2.7 1.5-6.2 0.7c-3.3-0.8-4.7-1-6-0.7C101.4 557.4 100 559.4 94.8 558.2z"/><path fill="#F1F2F2" d="M368.1 558.8c0 0 4.7 0.9 5.8-1.8 0 0 1.4-0.9 6.3 0.9 3.9 1.4 6.8 0.3 6.8 0.3s-2.7 1.5-6.2 0.7c-3.3-0.8-4.7-1-6-0.7C374.8 558 373.3 560 368.1 558.8zM380.4 560.1c0 0 4.7 0.9 5.8-1.8 0 0 1.4-0.9 6.3 0.9 3.9 1.4 6.8 0.3 6.8 0.3s-2.7 1.5-6.2 0.7c-3.3-0.8-4.7-1-6-0.7C387 559.3 385.6 561.2 380.4 560.1zM371.5 562.5c0 0 4.7 0.9 5.8-1.8 0 0 1.4-0.9 6.3 0.9 3.9 1.4 6.8 0.3 6.8 0.3s-2.7 1.5-6.2 0.7c-3.3-0.8-4.7-1-6-0.7C378.1 561.7 376.7 563.7 371.5 562.5z"/><path fill="#F1F2F2" d="M332 593.3c0 0 4.7 0.9 5.8-1.8 0 0 1.4-0.9 6.3 0.9 3.9 1.4 6.8 0.3 6.8 0.3s-2.7 1.5-6.2 0.7c-3.3-0.8-4.7-1-6-0.7C338.6 592.5 337.2 594.5 332 593.3zM344.2 594.5c0 0 4.7 0.9 5.8-1.8 0 0 1.4-0.9 6.3 0.9 3.9 1.4 6.8 0.3 6.8 0.3s-2.7 1.5-6.2 0.7c-3.3-0.8-4.7-1-6-0.7C350.8 593.7 349.4 595.7 344.2 594.5zM335.3 597c0 0 4.7 0.9 5.8-1.8 0 0 1.4-0.9 6.3 0.9 3.9 1.4 6.8 0.3 6.8 0.3s-2.7 1.5-6.2 0.7c-3.3-0.8-4.7-1-6-0.7C341.9 596.2 340.5 598.1 335.3 597z"/><path fill="#F1F2F2" d="M187.8 583.8c0 0 4.7 0.9 5.8-1.8 0 0 1.4-0.9 6.3 0.8 3.9 1.4 6.8 0.3 6.8 0.3s-2.7 1.5-6.2 0.7c-3.3-0.8-4.7-1-6-0.7C194.4 583 193 584.9 187.8 583.8zM200 585c0 0 4.7 0.9 5.8-1.8 0 0 1.4-0.9 6.3 0.9 3.9 1.4 6.8 0.3 6.8 0.3s-2.7 1.5-6.2 0.7c-3.3-0.8-4.7-1-6-0.7C206.7 584.2 205.2 586.2 200 585zM191.2 587.4c0 0 4.7 0.9 5.8-1.8 0 0 1.4-0.9 6.3 0.9 3.9 1.4 6.8 0.3 6.8 0.3s-2.7 1.5-6.2 0.7c-3.3-0.8-4.7-1-6-0.7C197.8 586.6 196.4 588.6 191.2 587.4z"/><path fill="#F1F2F2" d="M98.3 597.9c0 0 2.8 0.6 3.5-1.1 0 0 0.8-0.5 3.8 0.5 2.3 0.8 4.1 0.2 4.1 0.2s-1.6 0.9-3.7 0.4c-1.9-0.5-2.8-0.6-3.6-0.4C102.3 597.4 101.4 598.6 98.3 597.9zM105.6 598.6c0 0 2.8 0.6 3.5-1.1 0 0 0.8-0.5 3.8 0.5 2.3 0.8 4.1 0.2 4.1 0.2s-1.6 0.9-3.7 0.4c-2-0.5-2.8-0.6-3.6-0.4C109.6 598.1 108.8 599.3 105.6 598.6zM100.3 600.1c0 0 2.8 0.6 3.5-1.1 0 0 0.8-0.5 3.8 0.5 2.3 0.8 4.1 0.2 4.1 0.2s-1.6 0.9-3.7 0.4c-2-0.5-2.8-0.6-3.6-0.4C104.3 599.6 103.4 600.8 100.3 600.1z"/><path fill="#F1F2F2" d="M381.1 605.5c0 0 2.8 0.5 3.5-1.1 0 0 0.8-0.5 3.8 0.5 2.3 0.8 4.1 0.2 4.1 0.2s-1.6 0.9-3.7 0.4c-2-0.5-2.8-0.6-3.6-0.4C385.1 605 384.3 606.2 381.1 605.5zM388.5 606.2c0 0 2.8 0.6 3.5-1.1 0 0 0.8-0.5 3.8 0.5 2.3 0.8 4.1 0.2 4.1 0.2s-1.6 0.9-3.7 0.4c-2-0.5-2.8-0.6-3.6-0.4C392.4 605.8 391.6 606.9 388.5 606.2zM383.1 607.7c0 0 2.8 0.6 3.5-1.1 0 0 0.8-0.5 3.8 0.5 2.3 0.8 4.1 0.2 4.1 0.2s-1.6 0.9-3.7 0.4c-2-0.5-2.8-0.6-3.6-0.4C387.1 607.2 386.3 608.4 383.1 607.7z"/><path fill="#F1F2F2" d="M413 542.6c0 0 4.7 0.9 5.8-1.8 0 0 1.4-0.9 6.3 0.9 3.9 1.4 6.8 0.3 6.8 0.3s-2.7 1.5-6.2 0.7c-3.3-0.8-4.7-1-6-0.7C419.6 541.8 418.2 543.8 413 542.6zM425.2 543.8c0 0 4.7 0.9 5.8-1.8 0 0 1.4-0.9 6.3 0.9 3.9 1.4 6.8 0.3 6.8 0.3s-2.7 1.5-6.2 0.7c-3.3-0.8-4.7-1-6-0.7C431.8 543 430.4 545 425.2 543.8zM416.3 546.3c0 0 4.7 0.9 5.8-1.8 0 0 1.4-0.9 6.3 0.9 3.9 1.4 6.8 0.3 6.8 0.3s-2.7 1.5-6.2 0.7c-3.3-0.8-4.7-1-6-0.7C422.9 545.5 421.5 547.4 416.3 546.3z"/><path fill="#F1F2F2" d="M376.8 577c0 0 4.7 0.9 5.8-1.8 0 0 1.4-0.9 6.3 0.9 3.9 1.4 6.8 0.3 6.8 0.3s-2.7 1.5-6.2 0.7c-3.3-0.8-4.7-1-6-0.7C383.4 576.2 382 578.2 376.8 577zM389 578.3c0 0 4.7 0.9 5.8-1.8 0 0 1.4-0.9 6.3 0.9 3.9 1.4 6.8 0.3 6.8 0.3s-2.7 1.5-6.2 0.7c-3.3-0.8-4.7-1-6-0.7C395.6 577.5 394.2 579.4 389 578.3zM380.1 580.7c0 0 4.7 0.9 5.8-1.8 0 0 1.4-0.9 6.3 0.9 3.9 1.4 6.8 0.3 6.8 0.3s-2.7 1.5-6.2 0.7c-3.3-0.8-4.7-1-6-0.7C386.8 579.9 385.4 581.9 380.1 580.7z"/><path fill="#F1F2F2" d="M426 589.2c0 0 2.8 0.6 3.5-1.1 0 0 0.8-0.5 3.8 0.5 2.3 0.8 4.1 0.2 4.1 0.2s-1.6 0.9-3.7 0.4c-1.9-0.5-2.8-0.6-3.6-0.4C430 588.8 429.1 589.9 426 589.2zM433.3 590c0 0 2.8 0.6 3.5-1.1 0 0 0.8-0.5 3.8 0.5 2.3 0.8 4.1 0.2 4.1 0.2s-1.6 0.9-3.7 0.4c-1.9-0.5-2.8-0.6-3.6-0.4C437.3 589.5 436.4 590.7 433.3 590zM428 591.4c0 0 2.8 0.6 3.5-1.1 0 0 0.8-0.5 3.8 0.5 2.3 0.8 4.1 0.2 4.1 0.2s-1.6 0.9-3.7 0.4c-2-0.5-2.8-0.6-3.6-0.4C432 591 431.1 592.1 428 591.4z"/><path fill="#F1F2F2" d="M445.9 519.2c0 0 4.7 0.9 5.8-1.8 0 0 1.4-0.9 6.3 0.9 3.9 1.4 6.8 0.3 6.8 0.3s-2.7 1.5-6.2 0.7c-3.3-0.8-4.7-1-6-0.7C452.5 518.4 451.1 520.4 445.9 519.2zM458.1 520.5c0 0 4.7 0.9 5.8-1.8 0 0 1.4-0.9 6.3 0.9 3.9 1.4 6.8 0.3 6.8 0.3s-2.7 1.5-6.2 0.7c-3.3-0.8-4.7-1-6-0.7C464.7 519.7 463.3 521.7 458.1 520.5zM449.2 522.9c0 0 4.7 0.9 5.8-1.8 0 0 1.4-0.9 6.3 0.9 3.9 1.4 6.8 0.3 6.8 0.3s-2.7 1.5-6.2 0.7c-3.3-0.8-4.7-1-6-0.7C455.8 522.1 454.4 524.1 449.2 522.9z"/><path fill="#F1F2F2" d="M409.7 553.7c0 0 4.7 0.9 5.8-1.8 0 0 1.4-0.9 6.3 0.9 3.9 1.4 6.8 0.3 6.8 0.3s-2.7 1.5-6.2 0.7c-3.3-0.8-4.7-1-6-0.7C416.3 552.9 414.9 554.9 409.7 553.7zM421.9 554.9c0 0 4.7 0.9 5.8-1.8 0 0 1.4-0.9 6.3 0.9 3.9 1.4 6.8 0.3 6.8 0.3s-2.7 1.5-6.2 0.7c-3.3-0.8-4.7-1-6-0.7C428.5 554.1 427.1 556.1 421.9 554.9zM413 557.4c0 0 4.7 0.9 5.8-1.8 0 0 1.4-0.9 6.3 0.9 3.9 1.4 6.8 0.3 6.8 0.3s-2.7 1.5-6.2 0.7c-3.3-0.8-4.7-1-6-0.7C419.7 556.6 418.2 558.6 413 557.4z"/><path fill="#F1F2F2" d="M458.9 565.9c0 0 2.8 0.6 3.5-1.1 0 0 0.8-0.5 3.8 0.5 2.3 0.8 4.1 0.2 4.1 0.2s-1.6 0.9-3.7 0.4c-2-0.5-2.8-0.6-3.6-0.4C462.8 565.4 462 566.6 458.9 565.9zM466.2 566.6c0 0 2.8 0.6 3.5-1.1 0 0 0.8-0.5 3.8 0.5 2.3 0.8 4.1 0.2 4.1 0.2s-1.6 0.9-3.7 0.4c-2-0.5-2.8-0.6-3.6-0.4C470.2 566.2 469.3 567.4 466.2 566.6zM460.9 568.1c0 0 2.8 0.6 3.5-1.1 0 0 0.8-0.5 3.8 0.5 2.3 0.8 4.1 0.2 4.1 0.2s-1.6 0.9-3.7 0.4c-2-0.5-2.8-0.6-3.6-0.4C464.8 567.6 464 568.8 460.9 568.1z"/><path fill="#F1F2F2" d="M74.4 539.4c0 0 4.7 0.9 5.8-1.8 0 0 1.4-0.9 6.3 0.9 3.9 1.4 6.8 0.3 6.8 0.3s-2.7 1.5-6.2 0.7c-3.3-0.8-4.7-1-6-0.7C81.1 538.6 79.7 540.6 74.4 539.4zM86.7 540.6c0 0 4.7 0.9 5.8-1.8 0 0 1.4-0.9 6.3 0.9 3.9 1.4 6.8 0.3 6.8 0.3s-2.7 1.5-6.2 0.7c-3.3-0.8-4.7-1-6-0.7C93.3 539.8 91.9 541.8 86.7 540.6zM77.8 543.1c0 0 4.7 0.9 5.8-1.8 0 0 1.4-0.9 6.3 0.9 3.9 1.4 6.8 0.3 6.8 0.3s-2.7 1.5-6.2 0.7c-3.3-0.8-4.7-1-6-0.7C84.4 542.3 83 544.2 77.8 543.1z"/><path fill="#F1F2F2" d="M38.3 573.8c0 0 4.7 0.9 5.8-1.8 0 0 1.4-0.9 6.3 0.9 3.9 1.4 6.8 0.3 6.8 0.3s-2.7 1.5-6.2 0.7c-3.3-0.8-4.7-1-6-0.7C44.9 573 43.5 575 38.3 573.8zM50.5 575.1c0 0 4.7 0.9 5.8-1.8 0 0 1.4-0.9 6.3 0.8 3.9 1.4 6.8 0.3 6.8 0.3s-2.7 1.5-6.2 0.7c-3.3-0.8-4.7-1-6-0.7C57.1 574.3 55.7 576.2 50.5 575.1zM41.6 577.5c0 0 4.7 0.9 5.8-1.8 0 0 1.4-0.9 6.3 0.9 3.9 1.4 6.8 0.3 6.8 0.3s-2.7 1.5-6.2 0.7c-3.3-0.8-4.7-1-6-0.7C48.2 576.7 46.8 578.7 41.6 577.5z"/><path fill="#F1F2F2" d="M87.5 586c0 0 2.8 0.6 3.5-1.1 0 0 0.8-0.5 3.8 0.5 2.3 0.8 4.1 0.2 4.1 0.2s-1.6 0.9-3.7 0.4c-2-0.5-2.8-0.6-3.6-0.4C91.4 585.6 90.6 586.8 87.5 586zM94.8 586.8c0 0 2.8 0.6 3.5-1.1 0 0 0.8-0.5 3.8 0.5 2.3 0.8 4.1 0.2 4.1 0.2s-1.6 0.9-3.7 0.4c-1.9-0.5-2.8-0.6-3.6-0.4C98.8 586.3 97.9 587.5 94.8 586.8zM89.5 588.3c0 0 2.8 0.6 3.5-1.1 0 0 0.8-0.5 3.8 0.5 2.3 0.8 4.1 0.2 4.1 0.2s-1.6 0.9-3.7 0.4c-2-0.5-2.8-0.6-3.6-0.4C93.4 587.8 92.6 589 89.5 588.3z"/><path fill="#F1F2F2" d="M54.9 512.5c0 0 4.7 0.9 5.8-1.8 0 0 1.4-0.9 6.3 0.9 3.9 1.4 6.8 0.3 6.8 0.3s-2.7 1.5-6.2 0.7c-3.3-0.8-4.7-1-6-0.7C61.5 511.7 60.1 513.7 54.9 512.5zM67.1 513.7c0 0 4.7 0.9 5.8-1.8 0 0 1.4-0.9 6.3 0.9 3.9 1.4 6.8 0.3 6.8 0.3s-2.7 1.5-6.2 0.7c-3.3-0.8-4.7-1-6-0.7C73.7 512.9 72.3 514.9 67.1 513.7zM58.2 516.2c0 0 4.7 0.9 5.8-1.8 0 0 1.4-0.9 6.3 0.9 3.9 1.4 6.8 0.3 6.8 0.3s-2.7 1.5-6.2 0.7c-3.3-0.8-4.7-1-6-0.7C64.8 515.4 63.4 517.4 58.2 516.2z"/><path fill="#F1F2F2" d="M18.7 547c0 0 4.7 0.9 5.8-1.8 0 0 1.4-0.9 6.3 0.9 3.9 1.4 6.8 0.3 6.8 0.3s-2.7 1.5-6.2 0.7c-3.3-0.8-4.7-1-6-0.7C25.3 546.2 23.9 548.1 18.7 547zM30.9 548.2c0 0 4.7 0.9 5.8-1.8 0 0 1.4-0.9 6.3 0.9 3.9 1.4 6.8 0.3 6.8 0.3s-2.7 1.5-6.2 0.7c-3.3-0.8-4.7-1-6-0.7C37.5 547.4 36.1 549.4 30.9 548.2zM22 550.6c0 0 4.7 0.9 5.8-1.8 0 0 1.4-0.9 6.3 0.9 3.9 1.4 6.8 0.3 6.8 0.3s-2.7 1.5-6.2 0.7c-3.3-0.8-4.7-1-6-0.7C28.7 549.8 27.3 551.8 22 550.6z"/><path fill="#F1F2F2" d="M67.9 559.2c0 0 2.8 0.5 3.5-1.1 0 0 0.8-0.5 3.8 0.5 2.3 0.8 4.1 0.2 4.1 0.2s-1.6 0.9-3.7 0.4c-2-0.5-2.8-0.6-3.6-0.4C71.8 558.7 71 559.9 67.9 559.2zM75.2 559.9c0 0 2.8 0.6 3.5-1.1 0 0 0.8-0.5 3.8 0.5 2.3 0.8 4.1 0.2 4.1 0.2s-1.6 0.9-3.7 0.4c-2-0.5-2.8-0.6-3.6-0.4C79.2 559.4 78.3 560.6 75.2 559.9zM69.9 561.4c0 0 2.8 0.6 3.5-1.1 0 0 0.8-0.5 3.8 0.5 2.3 0.8 4.1 0.2 4.1 0.2s-1.6 0.9-3.7 0.4c-2-0.5-2.8-0.6-3.6-0.4C73.9 560.9 73 562.1 69.9 561.4z"/><path fill="#F1F2F2" d="M64.5 591.1c0 0 4.7 0.9 5.8-1.8 0 0 1.4-0.9 6.3 0.9 3.9 1.4 6.8 0.3 6.8 0.3s-2.7 1.5-6.2 0.7c-3.3-0.8-4.7-1-6-0.7C71.2 590.3 69.8 592.2 64.5 591.1zM76.8 592.3c0 0 4.7 0.9 5.8-1.8 0 0 1.4-0.9 6.3 0.9 3.9 1.4 6.8 0.3 6.8 0.3s-2.7 1.5-6.2 0.7c-3.3-0.8-4.7-1-6-0.7C83.4 591.5 82 593.5 76.8 592.3zM67.9 594.7c0 0 4.7 0.9 5.8-1.8 0 0 1.4-0.9 6.3 0.8 3.9 1.4 6.8 0.3 6.8 0.3s-2.7 1.5-6.2 0.7c-3.3-0.8-4.7-1-6-0.7C74.5 593.9 73.1 595.9 67.9 594.7z"/><path fill="#F1F2F2" d="M46.6 613.7c0 0 4.7 0.9 5.8-1.8 0 0 1.4-0.9 6.3 0.9 3.9 1.4 6.8 0.3 6.8 0.3s-2.7 1.5-6.2 0.7c-3.3-0.8-4.7-1-6-0.7C53.3 612.9 51.8 614.9 46.6 613.7zM58.9 614.9c0 0 4.7 0.9 5.8-1.8 0 0 1.4-0.9 6.3 0.9 3.9 1.4 6.8 0.3 6.8 0.3s-2.7 1.5-6.2 0.7c-3.3-0.8-4.7-1-6-0.7C65.5 614.1 64.1 616.1 58.9 614.9zM50 617.4c0 0 4.7 0.9 5.8-1.8 0 0 1.4-0.9 6.3 0.8 3.9 1.4 6.8 0.3 6.8 0.3s-2.7 1.5-6.2 0.7c-3.3-0.8-4.7-1-6-0.7C56.6 616.6 55.2 618.5 50 617.4z"/><path fill="#F1F2F2" d="M17.5 597.1c0 0 2.8 0.5 3.5-1.1 0 0 0.8-0.5 3.8 0.5 2.3 0.8 4.1 0.2 4.1 0.2s-1.6 0.9-3.7 0.4c-2-0.5-2.8-0.6-3.6-0.4C21.5 596.6 20.6 597.8 17.5 597.1zM24.8 597.9c0 0 2.8 0.6 3.5-1.1 0 0 0.8-0.5 3.8 0.5 2.3 0.8 4.1 0.2 4.1 0.2s-1.6 0.9-3.7 0.4c-2-0.5-2.8-0.6-3.6-0.4C28.8 597.4 28 598.6 24.8 597.9zM19.5 599.3c0 0 2.8 0.6 3.5-1.1 0 0 0.8-0.5 3.8 0.5 2.3 0.8 4.1 0.2 4.1 0.2s-1.6 0.9-3.7 0.4c-2-0.5-2.8-0.6-3.6-0.4C23.5 598.8 22.6 600 19.5 599.3z"/><path fill="#F1F2F2" d="M99.3 542.3c0 0 11.2 2.2 13.7-4.4 0 0 3.3-2.1 14.9 2 9.2 3.3 16.1 0.6 16.1 0.6s-6.4 3.5-14.8 1.5c-7.7-1.8-11.2-2.5-14.3-1.7C115 540.4 111.7 545 99.3 542.3zM128.3 545.2c0 0 11.2 2.2 13.7-4.4 0 0 3.3-2.1 14.9 2 9.2 3.3 16.1 0.6 16.1 0.6s-6.4 3.5-14.8 1.5c-7.7-1.8-11.2-2.5-14.3-1.7C144 543.3 140.6 547.9 128.3 545.2zM107.2 551c0 0 11.2 2.2 13.7-4.4 0 0 3.3-2.1 14.9 2 9.2 3.3 16.1 0.6 16.1 0.6s-6.4 3.5-14.8 1.5c-7.7-1.8-11.2-2.5-14.3-1.7C122.9 549.1 119.6 553.7 107.2 551z"/><path fill="#F1F2F2" d="M113.9 519.6c0 0 11.2 2.2 13.7-4.4 0 0 3.3-2.1 14.9 2 9.2 3.3 16.1 0.6 16.1 0.6s-6.4 3.5-14.8 1.5c-7.7-1.8-11.2-2.5-14.3-1.7C129.6 517.7 126.2 522.3 113.9 519.6zM142.8 522.5c0 0 11.2 2.2 13.7-4.4 0 0 3.3-2.1 14.9 2 9.2 3.3 16.1 0.6 16.1 0.6s-6.4 3.5-14.8 1.5c-7.7-1.8-11.2-2.5-14.3-1.7C158.5 520.6 155.2 525.2 142.8 522.5zM121.8 528.3c0 0 11.2 2.2 13.7-4.4 0 0 3.3-2.1 14.9 2 9.2 3.3 16.1 0.6 16.1 0.6s-6.4 3.5-14.8 1.5c-7.7-1.8-11.2-2.5-14.3-1.7C137.5 526.4 134.2 531 121.8 528.3z"/><path fill="#F1F2F2" d="M95.3 577.6c0 0 11.2 2.2 13.7-4.4 0 0 3.3-2.1 14.9 2 9.2 3.3 16.1 0.6 16.1 0.6s-6.4 3.5-14.8 1.5c-7.7-1.8-11.2-2.5-14.3-1.7C111 575.7 107.6 580.4 95.3 577.6zM124.2 580.5c0 0 11.2 2.2 13.7-4.4 0 0 3.3-2.1 14.9 2 9.2 3.3 16.1 0.6 16.1 0.6s-6.4 3.5-14.8 1.5c-7.7-1.8-11.2-2.5-14.3-1.7C139.9 578.6 136.6 583.3 124.2 580.5zM103.2 586.3c0 0 11.2 2.2 13.7-4.4 0 0 3.3-2.1 14.9 2 9.2 3.3 16.1 0.6 16.1 0.6s-6.4 3.5-14.8 1.5c-7.7-1.8-11.2-2.5-14.3-1.7C118.9 584.4 115.6 589.1 103.2 586.3z"/><path fill="#F1F2F2" d="M348.6 512.1c0 0 11.2 2.2 13.7-4.4 0 0 3.3-2.1 14.9 2 9.2 3.3 16.1 0.6 16.1 0.6s-6.4 3.5-14.8 1.5c-7.7-1.8-11.2-2.5-14.3-1.7C364.3 510.2 361 514.9 348.6 512.1zM377.6 515c0 0 11.2 2.2 13.7-4.4 0 0 3.3-2.1 14.9 2 9.2 3.3 16.1 0.6 16.1 0.6s-6.4 3.5-14.8 1.5c-7.7-1.8-11.2-2.5-14.3-1.7C393.3 513.1 389.9 517.8 377.6 515zM356.5 520.8c0 0 11.2 2.2 13.7-4.4 0 0 3.3-2.1 14.9 2 9.2 3.3 16.1 0.6 16.1 0.6s-6.4 3.5-14.8 1.5c-7.7-1.8-11.2-2.5-14.3-1.7C372.2 518.9 368.9 523.6 356.5 520.8z"/><path fill="#F1F2F2" d="M312.8 512c0 0 2.8 0.6 3.5-1.1 0 0 0.8-0.5 3.8 0.5 2.3 0.8 4.1 0.2 4.1 0.2s-1.6 0.9-3.7 0.4c-2-0.5-2.8-0.6-3.6-0.4C316.8 511.5 316 512.7 312.8 512zM320.2 512.7c0 0 2.8 0.6 3.5-1.1 0 0 0.8-0.5 3.8 0.5 2.3 0.8 4.1 0.2 4.1 0.2s-1.6 0.9-3.7 0.4c-1.9-0.5-2.8-0.6-3.6-0.4C324.1 512.2 323.3 513.4 320.2 512.7zM314.8 514.2c0 0 2.8 0.6 3.5-1.1 0 0 0.8-0.5 3.8 0.5 2.3 0.8 4.1 0.2 4.1 0.2s-1.6 0.9-3.7 0.4c-1.9-0.5-2.8-0.6-3.6-0.4C318.8 513.7 318 514.9 314.8 514.2z"/><path fill="#F1F2F2" d="M186 502.8c0 0 10.4 2 12.8-4.1 0 0 3.1-2 13.8 1.9 8.5 3 15 0.6 15 0.6s-6 3.3-13.7 1.4c-7.2-1.7-10.4-2.3-13.3-1.6C200.6 501 197.5 505.3 186 502.8zM213 505.5c0 0 10.4 2 12.8-4.1 0 0 3.1-2 13.8 1.9 8.5 3 15 0.6 15 0.6s-6 3.3-13.7 1.4c-7.2-1.7-10.4-2.3-13.3-1.6C227.5 503.7 224.4 508.1 213 505.5zM193.4 510.9c0 0 10.4 2 12.8-4.1 0 0 3.1-2 13.8 1.9 8.5 3 15 0.6 15 0.6s-6 3.3-13.7 1.4c-7.2-1.7-10.4-2.3-13.3-1.6C208 509.1 204.9 513.4 193.4 510.9z"/><path fill="#F1F2F2" d="M196.2 508.5c0 0 2.8 0.6 3.5-1.1 0 0 0.8-0.5 3.8 0.5 2.3 0.8 4.1 0.2 4.1 0.2s-1.6 0.9-3.7 0.4c-1.9-0.5-2.8-0.6-3.6-0.4C200.2 508 199.3 509.2 196.2 508.5zM203.5 509.2c0 0 2.8 0.5 3.5-1.1 0 0 0.8-0.5 3.8 0.5 2.3 0.8 4.1 0.2 4.1 0.2s-1.6 0.9-3.7 0.4c-2-0.5-2.8-0.6-3.6-0.4C207.5 508.8 206.7 509.9 203.5 509.2zM198.2 510.7c0 0 2.8 0.6 3.5-1.1 0 0 0.8-0.5 3.8 0.5 2.3 0.8 4.1 0.2 4.1 0.2s-1.6 0.9-3.7 0.4c-2-0.5-2.8-0.6-3.6-0.4C202.2 510.2 201.3 511.4 198.2 510.7z"/><path fill="#F1F2F2" d="M238.9 497.2c0 0 10.4 2 12.8-4.1 0 0 3.1-2 13.8 1.9 8.5 3 15 0.6 15 0.6s-6 3.3-13.7 1.4c-7.2-1.7-10.4-2.3-13.3-1.6C253.5 495.4 250.4 499.8 238.9 497.2zM265.8 499.9c0 0 10.4 2 12.8-4.1 0 0 3.1-2 13.8 1.9 8.5 3 15 0.6 15 0.6s-6 3.3-13.7 1.4c-7.2-1.7-10.4-2.3-13.3-1.6C280.4 498.1 277.3 502.5 265.8 499.9zM246.3 505.3c0 0 10.4 2 12.8-4.1 0 0 3.1-2 13.8 1.9 8.5 3 15 0.6 15 0.6s-6 3.3-13.8 1.4c-7.2-1.7-10.4-2.3-13.3-1.6C260.9 503.5 257.8 507.9 246.3 505.3z"/><path fill="#F1F2F2" d="M249.1 502.9c0 0 2.8 0.6 3.5-1.1 0 0 0.8-0.5 3.8 0.5 2.3 0.8 4.1 0.2 4.1 0.2s-1.6 0.9-3.7 0.4c-1.9-0.5-2.8-0.6-3.6-0.4C253.1 502.5 252.2 503.6 249.1 502.9zM256.4 503.7c0 0 2.8 0.6 3.5-1.1 0 0 0.8-0.5 3.8 0.5 2.3 0.8 4.1 0.2 4.1 0.2s-1.6 0.9-3.7 0.4c-2-0.5-2.8-0.6-3.6-0.4C260.4 503.2 259.5 504.4 256.4 503.7zM251.1 505.1c0 0 2.8 0.6 3.5-1.1 0 0 0.8-0.5 3.8 0.5 2.3 0.8 4.1 0.2 4.1 0.2s-1.6 0.9-3.7 0.4c-1.9-0.5-2.8-0.6-3.6-0.4C255.1 504.7 254.2 505.8 251.1 505.1z"/><path fill="#F1F2F2" d="M233.1 509.2c0 0 2.8 0.6 3.5-1.1 0 0 0.8-0.5 3.8 0.5 2.3 0.8 4.1 0.2 4.1 0.2s-1.6 0.9-3.7 0.4c-2-0.5-2.8-0.6-3.6-0.4C237.1 508.8 236.2 509.9 233.1 509.2z"/></g><path fill="#F1F2F2" d="M183 617.7v-0.1c-0.2 0.2-0.4 0.4-0.6 0.5 -0.2 0.1-0.4 0.2-0.6 0.3 -0.2 0.1-0.5 0.1-0.7 0.1 -0.3 0-0.7-0.1-1-0.2 -0.3-0.1-0.5-0.4-0.8-0.6 -0.2-0.3-0.4-0.6-0.5-0.9 -0.1-0.4-0.2-0.8-0.2-1.2 0-0.9 0.2-1.6 0.7-2.1 0.4-0.5 1-0.8 1.7-0.8 0.4 0 0.8 0.1 1 0.2 0.3 0.1 0.6 0.4 0.8 0.7v-2.1c0-0.3 0.1-0.5 0.2-0.7 0.1-0.1 0.3-0.2 0.5-0.2 0.2 0 0.4 0.1 0.5 0.2 0.1 0.1 0.2 0.3 0.2 0.6v6.3c0 0.3-0.1 0.5-0.2 0.6 -0.1 0.1-0.3 0.2-0.5 0.2 -0.2 0-0.4-0.1-0.5-0.2C183 618.1 183 617.9 183 617.7zM180.1 615.6c0 0.4 0.1 0.7 0.2 1 0.1 0.3 0.3 0.5 0.5 0.6 0.2 0.1 0.4 0.2 0.7 0.2 0.3 0 0.5-0.1 0.7-0.2 0.2-0.1 0.4-0.3 0.5-0.6 0.1-0.3 0.2-0.6 0.2-1 0-0.4-0.1-0.7-0.2-1 -0.1-0.3-0.3-0.5-0.5-0.6 -0.2-0.1-0.4-0.2-0.7-0.2 -0.3 0-0.5 0.1-0.7 0.2 -0.2 0.1-0.4 0.4-0.5 0.6C180.2 614.9 180.1 615.2 180.1 615.6zM189.7 615.9h-2.8c0 0.3 0.1 0.6 0.2 0.9 0.1 0.2 0.3 0.4 0.5 0.6 0.2 0.1 0.4 0.2 0.7 0.2 0.2 0 0.3 0 0.5-0.1 0.1 0 0.3-0.1 0.4-0.2 0.1-0.1 0.3-0.2 0.4-0.3 0.1-0.1 0.3-0.2 0.4-0.4 0.1-0.1 0.2-0.1 0.3-0.1 0.1 0 0.3 0 0.4 0.1 0.1 0.1 0.1 0.2 0.1 0.3 0 0.1-0.1 0.3-0.2 0.5 -0.1 0.2-0.3 0.3-0.5 0.5 -0.2 0.2-0.5 0.3-0.8 0.4 -0.3 0.1-0.7 0.2-1.1 0.2 -0.9 0-1.6-0.3-2.1-0.8 -0.5-0.5-0.8-1.2-0.8-2.1 0-0.4 0.1-0.8 0.2-1.2 0.1-0.4 0.3-0.7 0.6-0.9 0.2-0.3 0.5-0.5 0.9-0.6 0.4-0.1 0.7-0.2 1.2-0.2 0.6 0 1 0.1 1.4 0.4 0.4 0.2 0.7 0.5 0.9 0.9 0.2 0.4 0.3 0.8 0.3 1.1 0 0.4-0.1 0.6-0.3 0.7C190.4 615.9 190.1 615.9 189.7 615.9zM186.9 615.1h2.6c0-0.5-0.2-0.9-0.4-1.1 -0.2-0.2-0.5-0.4-0.9-0.4 -0.4 0-0.7 0.1-0.9 0.4C187.1 614.3 187 614.6 186.9 615.1zM196.7 616.6c0 0.4-0.1 0.7-0.3 1 -0.2 0.3-0.5 0.5-0.9 0.6 -0.4 0.1-0.8 0.2-1.4 0.2 -0.5 0-1-0.1-1.3-0.2 -0.4-0.2-0.6-0.4-0.8-0.6 -0.2-0.2-0.3-0.5-0.3-0.7 0-0.2 0.1-0.3 0.2-0.4 0.1-0.1 0.3-0.2 0.4-0.2 0.2 0 0.3 0 0.3 0.1 0.1 0.1 0.2 0.2 0.2 0.3 0.1 0.3 0.3 0.4 0.5 0.6 0.2 0.1 0.5 0.2 0.8 0.2 0.3 0 0.5-0.1 0.7-0.2s0.3-0.3 0.3-0.4c0-0.3-0.1-0.4-0.3-0.6 -0.2-0.1-0.5-0.2-0.9-0.3 -0.5-0.1-0.9-0.3-1.2-0.4 -0.3-0.1-0.6-0.3-0.7-0.5 -0.2-0.2-0.3-0.5-0.3-0.8 0-0.3 0.1-0.6 0.3-0.8 0.2-0.3 0.4-0.5 0.8-0.6 0.3-0.2 0.7-0.2 1.2-0.2 0.4 0 0.7 0 1 0.1 0.3 0.1 0.5 0.2 0.7 0.3 0.2 0.1 0.3 0.3 0.5 0.4 0.1 0.2 0.2 0.3 0.2 0.5 0 0.2-0.1 0.3-0.2 0.4 -0.1 0.1-0.3 0.2-0.5 0.2 -0.1 0-0.3 0-0.4-0.1 -0.1-0.1-0.2-0.2-0.4-0.4 -0.1-0.1-0.2-0.3-0.4-0.3 -0.1-0.1-0.3-0.1-0.6-0.1 -0.3 0-0.5 0.1-0.6 0.2 -0.2 0.1-0.3 0.2-0.3 0.4 0 0.2 0.1 0.3 0.2 0.4 0.1 0.1 0.3 0.2 0.5 0.2 0.2 0.1 0.5 0.1 0.9 0.2 0.4 0.1 0.8 0.2 1.1 0.4 0.3 0.2 0.5 0.3 0.6 0.5C196.7 616.1 196.7 616.3 196.7 616.6zM198.7 612c-0.2 0-0.4-0.1-0.5-0.2 -0.1-0.1-0.2-0.3-0.2-0.5 0-0.2 0.1-0.4 0.2-0.5 0.1-0.1 0.3-0.2 0.5-0.2 0.2 0 0.3 0.1 0.5 0.2 0.1 0.1 0.2 0.3 0.2 0.5 0 0.2-0.1 0.4-0.2 0.5C199 611.9 198.9 612 198.7 612zM199.4 613.5v4.1c0 0.3-0.1 0.5-0.2 0.6s-0.3 0.2-0.5 0.2c-0.2 0-0.4-0.1-0.5-0.2 -0.1-0.2-0.2-0.4-0.2-0.6v-4.1c0-0.3 0.1-0.5 0.2-0.6 0.1-0.1 0.3-0.2 0.5-0.2 0.2 0 0.4 0.1 0.5 0.2C199.3 613 199.4 613.2 199.4 613.5zM206.1 613.7v4.2c0 0.5-0.1 0.9-0.2 1.2 -0.1 0.3-0.3 0.6-0.5 0.9 -0.2 0.2-0.5 0.4-0.9 0.5 -0.4 0.1-0.8 0.2-1.3 0.2 -0.5 0-0.9-0.1-1.3-0.2 -0.4-0.1-0.7-0.3-0.9-0.5 -0.2-0.2-0.3-0.4-0.3-0.7 0-0.2 0.1-0.3 0.2-0.4 0.1-0.1 0.3-0.2 0.4-0.2 0.2 0 0.4 0.1 0.6 0.3 0.1 0.1 0.2 0.2 0.2 0.3 0.1 0.1 0.2 0.2 0.3 0.2 0.1 0.1 0.2 0.1 0.4 0.2 0.1 0 0.3 0 0.5 0 0.4 0 0.7 0 0.9-0.2 0.2-0.1 0.3-0.2 0.4-0.4 0.1-0.2 0.1-0.4 0.1-0.6 0-0.2 0-0.6 0-1 -0.2 0.3-0.5 0.5-0.8 0.7 -0.3 0.2-0.6 0.2-1 0.2 -0.5 0-0.9-0.1-1.3-0.4 -0.4-0.2-0.6-0.6-0.8-1 -0.2-0.4-0.3-0.9-0.3-1.5 0-0.4 0.1-0.8 0.2-1.2 0.1-0.3 0.3-0.6 0.5-0.9 0.2-0.2 0.5-0.4 0.8-0.5 0.3-0.1 0.6-0.2 0.9-0.2 0.4 0 0.8 0.1 1.1 0.2 0.3 0.2 0.6 0.4 0.8 0.7v-0.2c0-0.2 0.1-0.4 0.2-0.6 0.1-0.1 0.3-0.2 0.5-0.2 0.3 0 0.5 0.1 0.6 0.3C206.1 613.1 206.1 613.4 206.1 613.7zM202 615.5c0 0.6 0.1 1 0.4 1.3 0.3 0.3 0.6 0.4 1 0.4 0.2 0 0.5-0.1 0.7-0.2 0.2-0.1 0.4-0.3 0.5-0.6 0.1-0.3 0.2-0.6 0.2-0.9 0-0.6-0.1-1-0.4-1.4 -0.3-0.3-0.6-0.5-1-0.5 -0.4 0-0.7 0.2-1 0.5C202.1 614.5 202 614.9 202 615.5zM208.9 613.4v0.2c0.3-0.3 0.5-0.6 0.8-0.7 0.3-0.2 0.6-0.2 1-0.2 0.4 0 0.7 0.1 1 0.2 0.3 0.2 0.5 0.4 0.7 0.7 0.1 0.2 0.2 0.4 0.2 0.6 0 0.2 0 0.5 0 0.8v2.7c0 0.3-0.1 0.5-0.2 0.6 -0.1 0.1-0.3 0.2-0.5 0.2 -0.2 0-0.4-0.1-0.5-0.2 -0.1-0.2-0.2-0.4-0.2-0.6v-2.4c0-0.5-0.1-0.8-0.2-1.1 -0.1-0.2-0.4-0.4-0.8-0.4 -0.3 0-0.5 0.1-0.7 0.2 -0.2 0.2-0.4 0.4-0.5 0.6 -0.1 0.2-0.1 0.6-0.1 1.2v1.8c0 0.3-0.1 0.5-0.2 0.7 -0.1 0.1-0.3 0.2-0.5 0.2 -0.2 0-0.4-0.1-0.5-0.2 -0.1-0.2-0.2-0.4-0.2-0.6v-4.1c0-0.3 0.1-0.5 0.2-0.6 0.1-0.1 0.3-0.2 0.5-0.2 0.1 0 0.2 0 0.3 0.1 0.1 0.1 0.2 0.1 0.2 0.3C208.9 613.1 208.9 613.3 208.9 613.4zM218.1 615.9h-2.8c0 0.3 0.1 0.6 0.2 0.9 0.1 0.2 0.3 0.4 0.5 0.6 0.2 0.1 0.4 0.2 0.7 0.2 0.2 0 0.3 0 0.5-0.1 0.1 0 0.3-0.1 0.4-0.2 0.1-0.1 0.3-0.2 0.4-0.3 0.1-0.1 0.3-0.2 0.4-0.4 0.1-0.1 0.2-0.1 0.3-0.1 0.1 0 0.3 0 0.4 0.1 0.1 0.1 0.1 0.2 0.1 0.3 0 0.1 0 0.3-0.2 0.5 -0.1 0.2-0.3 0.3-0.5 0.5 -0.2 0.2-0.5 0.3-0.8 0.4 -0.3 0.1-0.7 0.2-1.1 0.2 -0.9 0-1.6-0.3-2.1-0.8 -0.5-0.5-0.8-1.2-0.8-2.1 0-0.4 0.1-0.8 0.2-1.2 0.1-0.4 0.3-0.7 0.6-0.9 0.2-0.3 0.5-0.5 0.9-0.6 0.4-0.1 0.7-0.2 1.2-0.2 0.6 0 1 0.1 1.4 0.4 0.4 0.2 0.7 0.5 0.9 0.9 0.2 0.4 0.3 0.8 0.3 1.1 0 0.4-0.1 0.6-0.3 0.7C218.7 615.9 218.5 615.9 218.1 615.9zM215.3 615.1h2.6c0-0.5-0.2-0.9-0.4-1.1 -0.2-0.2-0.5-0.4-0.9-0.4 -0.4 0-0.7 0.1-0.9 0.4C215.5 614.3 215.3 614.6 215.3 615.1zM224.4 617.7v-0.1c-0.2 0.2-0.4 0.4-0.6 0.5 -0.2 0.1-0.4 0.2-0.6 0.3 -0.2 0.1-0.5 0.1-0.7 0.1 -0.3 0-0.7-0.1-1-0.2 -0.3-0.1-0.5-0.4-0.8-0.6 -0.2-0.3-0.4-0.6-0.5-0.9 -0.1-0.4-0.2-0.8-0.2-1.2 0-0.9 0.2-1.6 0.7-2.1 0.4-0.5 1-0.8 1.7-0.8 0.4 0 0.8 0.1 1 0.2 0.3 0.1 0.6 0.4 0.8 0.7v-2.1c0-0.3 0.1-0.5 0.2-0.7 0.1-0.1 0.3-0.2 0.5-0.2 0.2 0 0.4 0.1 0.5 0.2 0.1 0.1 0.2 0.3 0.2 0.6v6.3c0 0.3-0.1 0.5-0.2 0.6 -0.1 0.1-0.3 0.2-0.5 0.2 -0.2 0-0.4-0.1-0.5-0.2C224.5 618.1 224.4 617.9 224.4 617.7zM221.6 615.6c0 0.4 0.1 0.7 0.2 1 0.1 0.3 0.3 0.5 0.5 0.6 0.2 0.1 0.4 0.2 0.7 0.2 0.3 0 0.5-0.1 0.7-0.2 0.2-0.1 0.4-0.3 0.5-0.6 0.1-0.3 0.2-0.6 0.2-1 0-0.4-0.1-0.7-0.2-1 -0.1-0.3-0.3-0.5-0.5-0.6 -0.2-0.1-0.4-0.2-0.7-0.2 -0.3 0-0.5 0.1-0.7 0.2 -0.2 0.1-0.4 0.4-0.5 0.6C221.6 614.9 221.6 615.2 221.6 615.6zM231.2 611.3v2.2c0.3-0.3 0.5-0.5 0.8-0.6 0.3-0.1 0.6-0.2 1-0.2 0.5 0 0.9 0.1 1.3 0.3 0.4 0.2 0.6 0.6 0.8 1 0.2 0.4 0.3 0.9 0.3 1.5 0 0.4-0.1 0.8-0.2 1.2 -0.1 0.4-0.3 0.7-0.5 0.9 -0.2 0.3-0.5 0.5-0.8 0.6 -0.3 0.1-0.6 0.2-1 0.2 -0.2 0-0.4 0-0.6-0.1 -0.2-0.1-0.4-0.1-0.5-0.2 -0.1-0.1-0.3-0.2-0.3-0.3 -0.1-0.1-0.2-0.2-0.4-0.4v0.1c0 0.3-0.1 0.5-0.2 0.6 -0.1 0.1-0.3 0.2-0.5 0.2 -0.2 0-0.4-0.1-0.5-0.2 -0.1-0.1-0.2-0.3-0.2-0.6v-6.3c0-0.3 0.1-0.5 0.2-0.7 0.1-0.1 0.3-0.2 0.5-0.2 0.2 0 0.4 0.1 0.5 0.2C231.1 610.9 231.2 611.1 231.2 611.3zM231.3 615.6c0 0.6 0.1 1 0.4 1.3 0.3 0.3 0.6 0.5 1 0.5 0.4 0 0.7-0.2 0.9-0.5 0.3-0.3 0.4-0.8 0.4-1.3 0-0.4-0.1-0.7-0.2-1 -0.1-0.3-0.3-0.5-0.5-0.6 -0.2-0.1-0.4-0.2-0.7-0.2 -0.3 0-0.5 0.1-0.7 0.2 -0.2 0.1-0.4 0.4-0.5 0.6C231.3 614.9 231.3 615.2 231.3 615.6zM237.8 618.7l0.1-0.3 -1.8-4.4c-0.1-0.3-0.2-0.4-0.2-0.6 0-0.1 0-0.2 0.1-0.3 0.1-0.1 0.1-0.2 0.3-0.3 0.1-0.1 0.2-0.1 0.3-0.1 0.2 0 0.4 0.1 0.5 0.2 0.1 0.1 0.2 0.3 0.3 0.6l1.2 3.5 1.1-3.3c0.1-0.3 0.2-0.5 0.2-0.6 0.1-0.1 0.2-0.3 0.2-0.3 0.1-0.1 0.2-0.1 0.3-0.1 0.1 0 0.2 0 0.3 0.1 0.1 0.1 0.2 0.1 0.2 0.2 0.1 0.1 0.1 0.2 0.1 0.3 0 0.1 0 0.2-0.1 0.3 0 0.1-0.1 0.2-0.1 0.4l-1.9 4.9c-0.2 0.4-0.3 0.8-0.5 1 -0.2 0.2-0.4 0.4-0.6 0.6 -0.3 0.1-0.6 0.2-1 0.2 -0.4 0-0.7 0-0.9-0.1 -0.2-0.1-0.3-0.3-0.3-0.5 0-0.2 0-0.3 0.1-0.4 0.1-0.1 0.2-0.1 0.4-0.1 0.1 0 0.2 0 0.2 0 0.1 0 0.2 0 0.2 0 0.2 0 0.3 0 0.4-0.1 0.1 0 0.2-0.1 0.3-0.3C237.6 619.1 237.7 618.9 237.8 618.7z"/><path fill="#F1F2F2" d="M264.3 612.8h0.3v-0.4c0-0.4 0.1-0.8 0.2-1.1 0.1-0.3 0.3-0.5 0.6-0.6s0.6-0.2 1.1-0.2c0.8 0 1.3 0.2 1.3 0.6 0 0.1 0 0.2-0.1 0.3 -0.1 0.1-0.2 0.1-0.3 0.1 -0.1 0-0.1 0-0.3 0 -0.1 0-0.3 0-0.3 0 -0.3 0-0.4 0.1-0.5 0.2 -0.1 0.2-0.1 0.4-0.1 0.7v0.3h0.4c0.5 0 0.8 0.2 0.8 0.5 0 0.2-0.1 0.4-0.2 0.4 -0.1 0.1-0.3 0.1-0.6 0.1h-0.4v3.8c0 0.3-0.1 0.5-0.2 0.6 -0.1 0.2-0.3 0.2-0.5 0.2 -0.2 0-0.4-0.1-0.5-0.2 -0.1-0.1-0.2-0.4-0.2-0.6v-3.8h-0.4c-0.2 0-0.4 0-0.5-0.1 -0.1-0.1-0.2-0.2-0.2-0.4C263.6 613 263.8 612.8 264.3 612.8zM269.4 616.4v1.2c0 0.3-0.1 0.5-0.2 0.7 -0.1 0.1-0.3 0.2-0.5 0.2 -0.2 0-0.4-0.1-0.5-0.2 -0.1-0.1-0.2-0.4-0.2-0.6v-4c0-0.6 0.2-1 0.7-1 0.2 0 0.4 0.1 0.5 0.2 0.1 0.2 0.2 0.4 0.2 0.7 0.2-0.3 0.3-0.5 0.5-0.7 0.2-0.1 0.4-0.2 0.7-0.2s0.6 0.1 0.9 0.2c0.3 0.2 0.4 0.4 0.4 0.6 0 0.2-0.1 0.3-0.2 0.4 -0.1 0.1-0.2 0.2-0.4 0.2 -0.1 0-0.2 0-0.4-0.1 -0.2-0.1-0.4-0.1-0.5-0.1 -0.2 0-0.4 0.1-0.5 0.2 -0.1 0.1-0.2 0.3-0.3 0.5 -0.1 0.2-0.1 0.5-0.2 0.8C269.4 615.6 269.4 616 269.4 616.4zM276.4 615.9h-2.8c0 0.3 0.1 0.6 0.2 0.9 0.1 0.2 0.3 0.4 0.5 0.6 0.2 0.1 0.4 0.2 0.7 0.2 0.2 0 0.3 0 0.5-0.1 0.1 0 0.3-0.1 0.4-0.2 0.1-0.1 0.3-0.2 0.4-0.3 0.1-0.1 0.3-0.2 0.4-0.4 0.1-0.1 0.2-0.1 0.3-0.1 0.1 0 0.3 0 0.4 0.1 0.1 0.1 0.1 0.2 0.1 0.3 0 0.1 0 0.3-0.2 0.5 -0.1 0.2-0.3 0.3-0.5 0.5 -0.2 0.2-0.5 0.3-0.8 0.4 -0.3 0.1-0.7 0.2-1.1 0.2 -0.9 0-1.6-0.3-2.1-0.8 -0.5-0.5-0.8-1.2-0.8-2.1 0-0.4 0.1-0.8 0.2-1.2 0.1-0.4 0.3-0.7 0.6-0.9 0.2-0.3 0.5-0.5 0.9-0.6 0.4-0.1 0.7-0.2 1.2-0.2 0.6 0 1 0.1 1.4 0.4 0.4 0.2 0.7 0.5 0.9 0.9 0.2 0.4 0.3 0.8 0.3 1.1 0 0.4-0.1 0.6-0.3 0.7C277.1 615.9 276.8 615.9 276.4 615.9zM273.6 615.1h2.6c0-0.5-0.2-0.9-0.4-1.1 -0.2-0.2-0.5-0.4-0.9-0.4 -0.4 0-0.6 0.1-0.9 0.4C273.8 614.3 273.6 614.6 273.6 615.1zM282.8 615.9h-2.8c0 0.3 0.1 0.6 0.2 0.9 0.1 0.2 0.3 0.4 0.5 0.6 0.2 0.1 0.4 0.2 0.7 0.2 0.2 0 0.3 0 0.5-0.1 0.1 0 0.3-0.1 0.4-0.2 0.1-0.1 0.3-0.2 0.4-0.3 0.1-0.1 0.3-0.2 0.4-0.4 0.1-0.1 0.2-0.1 0.3-0.1 0.1 0 0.3 0 0.4 0.1 0.1 0.1 0.1 0.2 0.1 0.3 0 0.1 0 0.3-0.1 0.5 -0.1 0.2-0.3 0.3-0.5 0.5 -0.2 0.2-0.5 0.3-0.8 0.4 -0.3 0.1-0.7 0.2-1.1 0.2 -0.9 0-1.6-0.3-2.1-0.8 -0.5-0.5-0.8-1.2-0.8-2.1 0-0.4 0.1-0.8 0.2-1.2 0.1-0.4 0.3-0.7 0.6-0.9 0.2-0.3 0.5-0.5 0.9-0.6 0.4-0.1 0.7-0.2 1.2-0.2 0.6 0 1 0.1 1.4 0.4 0.4 0.2 0.7 0.5 0.9 0.9 0.2 0.4 0.3 0.8 0.3 1.1 0 0.4-0.1 0.6-0.3 0.7C283.4 615.9 283.2 615.9 282.8 615.9zM280 615.1h2.6c0-0.5-0.2-0.9-0.4-1.1 -0.2-0.2-0.5-0.4-0.9-0.4 -0.4 0-0.6 0.1-0.9 0.4C280.2 614.3 280 614.6 280 615.1zM286.4 613.5v0.2c0.3-0.3 0.5-0.6 0.8-0.7 0.3-0.2 0.6-0.2 1-0.2 0.4 0 0.8 0.1 1.2 0.3 0.4 0.2 0.7 0.6 0.9 1 0.2 0.4 0.3 1 0.3 1.6 0 0.4-0.1 0.8-0.2 1.2 -0.1 0.4-0.3 0.7-0.5 0.9 -0.2 0.3-0.5 0.4-0.8 0.6 -0.3 0.1-0.6 0.2-1 0.2 -0.4 0-0.8-0.1-1-0.2 -0.3-0.2-0.5-0.4-0.8-0.7v2.2c0 0.6-0.2 0.9-0.7 0.9 -0.3 0-0.4-0.1-0.5-0.2 -0.1-0.2-0.1-0.4-0.1-0.7v-6.2c0-0.3 0.1-0.5 0.2-0.6 0.1-0.1 0.3-0.2 0.5-0.2 0.2 0 0.4 0.1 0.5 0.2C286.3 613 286.4 613.2 286.4 613.5zM289.2 615.5c0-0.4-0.1-0.7-0.2-1s-0.3-0.5-0.5-0.6c-0.2-0.1-0.4-0.2-0.7-0.2 -0.4 0-0.7 0.2-1 0.5 -0.3 0.3-0.4 0.8-0.4 1.4 0 0.6 0.1 1 0.4 1.3 0.3 0.3 0.6 0.5 1 0.5 0.2 0 0.5-0.1 0.7-0.2 0.2-0.1 0.4-0.3 0.5-0.6C289.1 616.3 289.2 615.9 289.2 615.5zM292.5 612c-0.2 0-0.4-0.1-0.5-0.2 -0.1-0.1-0.2-0.3-0.2-0.5 0-0.2 0.1-0.4 0.2-0.5 0.1-0.1 0.3-0.2 0.5-0.2 0.2 0 0.3 0.1 0.5 0.2 0.1 0.1 0.2 0.3 0.2 0.5 0 0.2-0.1 0.4-0.2 0.5C292.8 611.9 292.7 612 292.5 612zM293.2 613.5v4.1c0 0.3-0.1 0.5-0.2 0.6 -0.1 0.1-0.3 0.2-0.5 0.2 -0.2 0-0.4-0.1-0.5-0.2 -0.1-0.2-0.2-0.4-0.2-0.6v-4.1c0-0.3 0.1-0.5 0.2-0.6 0.1-0.1 0.3-0.2 0.5-0.2 0.2 0 0.4 0.1 0.5 0.2C293.1 613 293.2 613.2 293.2 613.5zM298.2 617.8l-1.3-2.1 -0.8 0.7v1.1c0 0.3-0.1 0.5-0.2 0.6 -0.1 0.2-0.3 0.2-0.5 0.2 -0.2 0-0.4-0.1-0.5-0.2 -0.1-0.1-0.2-0.4-0.2-0.6v-6.1c0-0.3 0.1-0.6 0.2-0.7 0.1-0.2 0.3-0.2 0.5-0.2 0.2 0 0.4 0.1 0.5 0.2 0.1 0.2 0.2 0.4 0.2 0.7v3.5l1.6-1.7c0.2-0.2 0.4-0.4 0.5-0.4 0.1-0.1 0.2-0.1 0.4-0.1 0.2 0 0.3 0.1 0.4 0.2 0.1 0.1 0.2 0.3 0.2 0.4 0 0.2-0.2 0.5-0.6 0.8l-0.8 0.7 1.5 2.3c0.1 0.2 0.2 0.3 0.2 0.4 0 0.1 0.1 0.2 0.1 0.3 0 0.2-0.1 0.4-0.2 0.5 -0.1 0.1-0.3 0.2-0.5 0.2 -0.2 0-0.3 0-0.4-0.1C298.5 618.2 298.4 618.1 298.2 617.8zM301.8 618.5c-0.2 0-0.4-0.1-0.6-0.2 -0.2-0.1-0.2-0.3-0.2-0.6 0-0.2 0.1-0.4 0.2-0.5 0.2-0.2 0.3-0.2 0.6-0.2 0.2 0 0.4 0.1 0.6 0.2 0.2 0.2 0.2 0.3 0.2 0.6 0 0.3-0.1 0.4-0.2 0.6C302.2 618.4 302 618.5 301.8 618.5zM309.3 616.7c0 0.2-0.1 0.4-0.2 0.6 -0.1 0.2-0.3 0.4-0.5 0.6 -0.2 0.2-0.5 0.3-0.8 0.4 -0.3 0.1-0.7 0.2-1.1 0.2 -0.9 0-1.6-0.3-2.1-0.8 -0.5-0.5-0.7-1.2-0.7-2.1 0-0.6 0.1-1.1 0.3-1.6 0.2-0.4 0.6-0.8 1-1 0.4-0.2 0.9-0.4 1.5-0.4 0.4 0 0.7 0.1 1 0.2 0.3 0.1 0.6 0.2 0.8 0.4 0.2 0.2 0.4 0.4 0.5 0.5 0.1 0.2 0.2 0.4 0.2 0.5 0 0.2-0.1 0.3-0.2 0.4 -0.1 0.1-0.3 0.2-0.5 0.2 -0.1 0-0.2 0-0.3-0.1 -0.1-0.1-0.2-0.2-0.3-0.3 -0.2-0.3-0.4-0.5-0.5-0.6 -0.2-0.1-0.4-0.2-0.7-0.2 -0.4 0-0.8 0.2-1 0.5 -0.3 0.3-0.4 0.8-0.4 1.4 0 0.3 0 0.5 0.1 0.7 0.1 0.2 0.2 0.4 0.3 0.6 0.1 0.2 0.3 0.3 0.5 0.4 0.2 0.1 0.4 0.1 0.6 0.1 0.3 0 0.5-0.1 0.7-0.2 0.2-0.1 0.4-0.3 0.5-0.6 0.1-0.2 0.2-0.3 0.3-0.4 0.1-0.1 0.2-0.1 0.4-0.1 0.2 0 0.3 0.1 0.4 0.2C309.3 616.4 309.3 616.6 309.3 616.7zM315.9 615.6c0 0.4-0.1 0.8-0.2 1.2 -0.1 0.4-0.3 0.7-0.6 0.9 -0.2 0.3-0.5 0.5-0.9 0.6 -0.3 0.1-0.7 0.2-1.2 0.2 -0.4 0-0.8-0.1-1.2-0.2 -0.3-0.1-0.6-0.3-0.9-0.6 -0.3-0.3-0.4-0.6-0.6-0.9 -0.1-0.4-0.2-0.7-0.2-1.2 0-0.4 0.1-0.8 0.2-1.2 0.1-0.4 0.3-0.7 0.6-0.9 0.2-0.3 0.5-0.5 0.9-0.6 0.4-0.1 0.7-0.2 1.2-0.2 0.4 0 0.8 0.1 1.2 0.2 0.4 0.1 0.7 0.3 0.9 0.6 0.3 0.3 0.4 0.6 0.6 0.9C315.9 614.7 315.9 615.1 315.9 615.6zM314.5 615.6c0-0.6-0.1-1-0.4-1.4 -0.3-0.3-0.6-0.5-1-0.5 -0.3 0-0.5 0.1-0.7 0.2 -0.2 0.1-0.4 0.4-0.5 0.6 -0.1 0.3-0.2 0.6-0.2 1 0 0.4 0.1 0.7 0.2 1 0.1 0.3 0.3 0.5 0.5 0.6 0.2 0.1 0.5 0.2 0.7 0.2 0.4 0 0.8-0.2 1-0.5C314.4 616.6 314.5 616.1 314.5 615.6zM321.8 615.7v1.9c0 0.3-0.1 0.5-0.2 0.7 -0.1 0.2-0.3 0.2-0.5 0.2 -0.2 0-0.4-0.1-0.5-0.2 -0.1-0.2-0.2-0.4-0.2-0.7v-2.3c0-0.4 0-0.6 0-0.8s-0.1-0.4-0.2-0.5c-0.1-0.1-0.3-0.2-0.5-0.2 -0.5 0-0.8 0.2-0.9 0.5 -0.1 0.3-0.2 0.8-0.2 1.4v1.9c0 0.3-0.1 0.5-0.2 0.7 -0.1 0.2-0.3 0.2-0.5 0.2 -0.2 0-0.4-0.1-0.5-0.2 -0.1-0.2-0.2-0.4-0.2-0.7v-4.1c0-0.3 0.1-0.5 0.2-0.6 0.1-0.1 0.3-0.2 0.5-0.2 0.2 0 0.4 0.1 0.5 0.2 0.1 0.1 0.2 0.3 0.2 0.5v0.1c0.2-0.3 0.5-0.5 0.8-0.7 0.3-0.1 0.6-0.2 0.9-0.2 0.4 0 0.7 0.1 0.9 0.2 0.3 0.1 0.5 0.4 0.6 0.7 0.2-0.3 0.5-0.5 0.8-0.7 0.3-0.1 0.6-0.2 0.9-0.2 0.4 0 0.7 0.1 1 0.2 0.3 0.2 0.5 0.4 0.6 0.7 0.1 0.3 0.2 0.7 0.2 1.2v2.8c0 0.3-0.1 0.5-0.2 0.7 -0.1 0.2-0.3 0.2-0.5 0.2 -0.2 0-0.4-0.1-0.5-0.2 -0.1-0.2-0.2-0.4-0.2-0.7v-2.4c0-0.3 0-0.6 0-0.7 0-0.2-0.1-0.3-0.2-0.5 -0.1-0.1-0.3-0.2-0.5-0.2 -0.2 0-0.4 0.1-0.5 0.2 -0.2 0.1-0.3 0.3-0.4 0.5C321.9 614.6 321.8 615.1 321.8 615.7z"/><path fill="#F1F2F2" d="M253 609c0-0.1-0.1-0.2-0.1-0.3 0.5 0 0.8-0.6 0.6-1 -0.2-0.5-1-0.5-1.2-0.1 -0.3 0.4-0.1 1 0.4 1.1 0 0.1 0.1 0.2 0.1 0.3 -0.7 0-1.5 0.2-2.1 0.6 0.1 0.2 0.1 0.4 0.2 0.5 1.2-0.5 2.6-0.4 3.9-0.3 0-0.2 0.1-0.3 0.1-0.5C254.3 609.1 253.6 609 253 609zM260.2 610.9c-0.2 0.1-0.2 0.3-0.2 0.5 -0.2 0.2-0.1 0.5-0.1 0.8 0 0.1-0.2 0.2-0.3 0.2 -0.2-0.3-0.3-0.5-0.6-0.7l0 0c-0.2-0.2-0.5-0.4-0.8-0.6 -0.2 0.2-0.5 0.5-0.7 0.7 0.4 0.5 0.8 1 1.2 1.5 0.2 0.4 0.4 0.8 0.6 1.3 0.4-0.2 0.7-0.4 1.1-0.6 -0.2-0.4-0.4-0.9-0.6-1.3 0.2-0.1 0.4-0.2 0.4-0.4 0-0.2 0-0.5 0.1-0.7 0.3 0.2 0.7 0 0.7-0.4C261 611 260.5 610.7 260.2 610.9zM258.3 613.6c-0.5-0.8-1-1.6-1.7-2.2 -0.8-0.7-1.8-1.2-2.9-1.2 -1.4 0-2.8 0.2-4 0.8 -1.2 0.5-2.2 1.5-2.7 2.7 -0.5 1.1-0.5 2.3-0.3 3.5 1.3 0.3 2.5 0.6 3.8 0.7 1.3 0 2.6 0.1 3.8-0.1 1.7-0.2 3.5-0.8 5-1.7C259.3 616 259.1 614.8 258.3 613.6zM252.1 615.1c-0.2 0.3-0.6 0.6-1 0.8 -0.7 0.3-1.6 0.1-2.2-0.5 -0.4-0.4-0.6-1-0.5-1.5 0-0.7 0.5-1.3 1.1-1.7 0.5-0.3 1-0.3 1.5-0.2 0.2 0.1 0.4 0.2 0.6 0.3 0.4 0.3 0.7 0.7 0.8 1.1C252.5 614 252.4 614.6 252.1 615.1zM257.4 613.9c-0.1 0.6-0.6 1.1-1.3 1.1 -0.3 0-0.7-0.1-0.9-0.4 -0.2-0.2-0.3-0.5-0.3-0.7 -0.1-0.6 0.3-1.2 0.9-1.4 0.3-0.1 0.5 0 0.8 0C257.1 612.7 257.5 613.3 257.4 613.9zM246.9 611.8c-0.5 0.3-0.9 0.7-1.3 1.2 -0.1-0.2-0.1-0.4-0.3-0.6 -0.1-0.1-0.2-0.1-0.3-0.1 -0.1 0-0.3 0-0.4-0.1 0.1-0.2 0.1-0.5-0.1-0.7 -0.2-0.2-0.6 0-0.7 0.3 -0.1 0.3 0.2 0.6 0.5 0.6 0.2 0.2 0.5 0.2 0.7 0.2 0.1 0.2 0.2 0.4 0.4 0.6 -0.3 0.5-0.4 1.1-0.4 1.8 0.4 0.1 0.7 0.3 1.1 0.4 0-0.4 0.1-0.8 0.1-1.1 0.1-0.8 0.6-1.5 1.2-2.1C247.2 612.1 247.1 612 246.9 611.8zM255.2 618c-1.3 0.3-2.6 0.4-4 0.3 -0.9 0-1.8-0.1-2.7-0.3 -0.6-0.1-1.2-0.3-1.8-0.5 0.1 0.8 0.4 1.5 0.9 2.2 0.5 0.7 1.2 1.4 2.1 1.7 0.7 0.2 1.5 0.4 2.9 0.4 1.2 0 2.3-0.2 3.4-0.6 0.7-0.3 1.3-0.7 1.8-1.2 0.5-0.4 0.8-1 1.1-1.6 0.2-0.6 0.5-1.5 0.4-2C258 617.1 256.6 617.8 255.2 618z"/><g opacity="0.9"><radialGradient id="SVGID_2_" cx="248.7" cy="199.7" r="113.9" gradientTransform="matrix(1.012 0 0 0.9933 1.0309 1.9824)" gradientUnits="userSpaceOnUse"><stop offset="0" stop-color="#E8EEF9"/><stop offset="0.3" stop-color="#E2E9F6"/><stop offset="0.7" stop-color="#D0DAEC"/><stop offset="0.9" stop-color="#BECBE3"/><stop offset="1" stop-color="#BDADDE"/></radialGradient><ellipse fill="url(#SVGID_2_)" cx="252.7" cy="200.4" rx="115.3" ry="113.1"/><radialGradient id="SVGID_3_" cx="248.8" cy="195.2" r="114.9" gradientTransform="matrix(0.9947 0 0 0.993 5.5574 6.5023)" gradientUnits="userSpaceOnUse"><stop offset="0" stop-color="#E9ECFA"/><stop offset="0.3" stop-color="#E5E9F8"/><stop offset="0.7" stop-color="#D8DFF1"/><stop offset="1" stop-color="#C4D0E6"/></radialGradient><path fill="url(#SVGID_3_)" d="M366.9 195.4c0.3 0.5 0.5 0.9 0.7 1.4 0-0.3 0-0.6 0-0.9 0-9.2-0.2-26.7-7.2-33.6 -0.3 1.8 0.8 2.9 1 4.5 -1.5-2.5-4.6-5.5-3.9-8.6 1.3-0.2 2.5 0 3.6 0.6 -1.6-3.2-3.4-6.4-5.4-9.4 -1-1.6-2.1-3.1-3.1-4.6 0.6 1.2 1.1 2.6 1.6 3.9 -3.2-2.1-4.9-5.7-6.1-9.8 0.4 0.3 0.8 0.7 1.2 1.1 -6.4-9.1-12.9-17.3-21.6-25.6 -5.6-5.3-11.5-8.2-18.5-11.3 -6.7-3-12.6-7.8-19.7-9.9 -3.4-1-6.9-0.1-10.3-0.9 -3.5-0.9-6.2-3.7-9.9-4 -7.4-0.5-14.8-1-22.2-1 -4.2 0-8.3 0.9-12 2.8 2-0.2 3.9 0.1 5.5 1.4 -6.7 1.5-11.6 3.1-15.6 2.9 -0.4-2.3 3.1-2.3 4.4-3.5 -1.1 1.1-8.6 1.2-10.5 1.5 -3.7 0.6-7.4 1.1-9.8 4.3 -3.1 4.2-9.9 5.2-13.8 8.7 -0.7 0.6-9.6 9.5-8.8 4.1 -9.3 6.1-14.1 15.6-21.8 23 -7.1 6.7-14.3 15.2-17.4 24.7 -1.8 5.8-3.8 11.5-5.3 17.3 -1.2 4.5-4.2 11.6-3.7 16.3 1.3-0.9 2.5-2.1 3.7-2.8 2.9 3.3-0.2 15.7-3.7 7 1.1 2.6-0.4 9.1-0.4 12.3 0.6 3.8 3.8 6.3 4.4 10.1 0.1-2 2-4.4 1.2-7 -0.6-1.9-1.7-5.3 0.8-6.6 5 1.5 4.1 14.2 3.9 18 -0.4 9.5-6.1 3.6-5.2-2.2 -1.4 9.2 1.5 20.1 6.3 28.1 3.9 6.6 7.1 14.5 11.5 20.7 3.8 5.3 9.5 8.4 14.9 11.8 2.5 1.5 5.4 3.3 7.1 5.7 1 1.3 0.7 3.8-2 2 3.1 5.8 11.6 6.7 16.5 10.5 4.5 3.5 10 8.9 16.1 8.9 -10.2-6 1.6-4.5 9.4-1.4 4.9-1.7 6.8-0.3 10.6 3 2.4-0.1 9.4-0.6 10.9 1.7 -3.1 0.7-10.4 0.8-15.8-0.8 0.1 0.5 0.1 0.9-0.3 1.3 6 0.5 15 3 20.8 1.1 1.5-0.5 8.3-3.8 9.4-1.3 -0.7 1-1.7 1.6-2.9 1.8 3.3 2.1 8.3-1.2 11.5-2.1 2.2-0.7 8.2 1.2 5.2 1.2 8.9 2.9 27.3-6.4 33.8-10.9 2.8-1.9 3-3.8 5-6 -1 1.1-1.6 1-3 0.7 1.1-2.1 3.2-4.4 5.8-3.9 -0.1 0.6 0.3 1.5 0.1 2.2 7-0.4 11.1-4.4 15.8-8.6 -1.9 1.6-3.5 0.3-2.7-2.1 1.6-1 6-4.3 4.9 0.1 3.1-1.9 5.3-3.3 7.7-6.2 4.9-5.8 8-13.5 12-19.9 2.1-3.4 5.2-6.6 7-10.2 -0.7-3.4 0.1-6.2 1.7-9.3 5.6-10.3 6.8-21.2 7.1-32.5 -0.2 0.9-0.5 1.8-0.7 2.8C364.7 205.3 366.3 198.5 366.9 195.4zM363.2 175.7c4.2 2.4 2.7 6.5 1.9 10.2C362.8 183.8 362.6 178.5 363.2 175.7zM349.4 158.6c0.7 3.9 2.7 5.4 4.3 9.2 1.5 3.7-0.3 6.9 2.1 10.4 -7 3.3-3.6-5.2-4.4-7.7 -1.1-3.5-7.4-4.7-9-8.6 2.9 1.9 4.2-0.8 3.9-3.1 -0.3-3.1-4.4-5-4.4-0.8 -1.1-3.2-0.2-9.7 4.8-7.1C349.4 152.2 348.9 156.1 349.4 158.6zM343.2 141.6c-3.6-0.4-8.8-5.4-6.5-9.1C342 133.4 344.9 136.1 343.2 141.6zM339.7 129.7c-3.1-1.1-6.4-4.3-7.3-7.5C337.4 123.7 337.9 125 339.7 129.7zM333.2 130.2c-5.7 0.5-9.1-2.4-8.1-8.2C329.5 122.3 333.6 125.7 333.2 130.2zM327.2 140.5c-3.7-0.4-13.9-6.8-7.1-10.6C328.7 125.1 332.2 141 327.2 140.5zM326.5 114.5c-3.6-0.1-7.7-2.9-9.4-6.1C320.9 109.8 323.8 112.1 326.5 114.5zM311.4 150c1.7-3.8 8.9-7.2 10.1-1 -3.6-3.2-6.3 3.9-4.1 7.4 3.8 5.9 7.8 4 10.4-0.9 -1.5 2.9 0.4 6.2-3.1 8.6 -3.3 2.2-7.5 0.8-10.5-1.1C310 160.3 309.5 154.2 311.4 150zM315.8 176.7c2.7-2.9 7.2-4.1 9.9-0.5 2.3 2.9 0.8 7.3-0.8 10.3 0.7-2.1-0.6-10.2-3.9-9.8 -4.3 0.5-1.4 7.9-0.9 9.8 -0.8-0.7-5.7-4.6-4.8-6 -1 1.5-2.4 2.1-3.8 3.1 3.9-3.3 1.6-7-2.7-7.6 -5.3-0.7-5.2 2.6-5.2 6.8 -1.5-1.9-2.7-2.7-2.8-5.3C300.5 168.8 314.8 167.4 315.8 176.7zM320.1 225.9c-0.8 4.1-8.2 14.8-13 13.9 0.2-3 2.4-5.8 1.3-8.8 -1.1-2.8-3.8-4-4.3-7.7 2.3 0.3 4.6 1.1 4.4-2.3 -0.3-5.5-5.5-1.4-5.7-1.5 -5.3-4.6 3.1-14.2 9-11.8 3.1 1.3 2.2 4.4 6.2 4.9 2.6 0.3 4.8 2.4 5.5 4.9 0.9 3.3-1.8 4-2.3 6.4C322.7 216.2 312.6 226.2 320.1 225.9zM315.5 197c-1.3-5.5-6.5-5.4-9.9-1.8 -0.4-3.8 5.1-5.3 8-4.8 8.1 1.2 8.5 16-2.2 14.6 -2.5-0.3-3.1-1.5-4.8-3.2C310.4 205.6 316.7 202.2 315.5 197zM304 148.8c-2.2 2.2-9.2 3-9.5-1.5 2 1.5 5.9 1 6.9-1.9 2.3-6.7-5.9-5.8-9.2-6.2C294.2 134 312.3 140.8 304 148.8zM263.1 206.8c2.8-4.9 12.2 4.3 3.8 7.2 -3.2 1.1-3.3-1.2-5.3-2.6 1.8 1.1 4.2 0.4 6.2-0.3C268.5 208.2 265.8 206.5 263.1 206.8zM256.4 189.1c1.6-0.3 2.8-1.5 2.9-3.3 0.1-3-2-2.8-4.6-2.6 -2.3 0.2-7.5 2.9-3.2 4.8 -2.5 0.7-5.1 1-7.8 0.5 -4.5-0.9-5-5.2-3.4-8.8 0.7-1.6 2-3.7 3.3-4.8 1.7-1.5 4.1-0.6 5.3-1.4 -6.7 4.7 6.9 5.6 9.6 5 8.6-1.9 3.3-9.8-3.2-7.7 1.7-2.4 5.9-5.5 8.9-5.2 6.2 0.6 5.2 7.1 7.8 11 -6.3 0.5 3.9 10.8 4.7 3.8 -0.1 1.1 2 3.5 2.4 4.8 1.9 5.8-2.1 7.6-7.3 7.1C267.9 192.1 258.9 192.2 256.4 189.1zM250.6 148.3c-3.5-1.6-7.6 0.8-10.1 3.2 0.2-4.3 0.2-7.6 4.6-8.8 3.1-0.8 6.5-0.5 8.8 1.8 1.7 1.8 2.8 5 2.2 7.4 -0.9 3.9-2.8 2-4.9 3.6C254.3 153.4 254.3 150 250.6 148.3zM251.8 102.6c0.5-1.2 1.8-1.4 3.2-1 -3.7 2.9 3.4 5.3 5.2 2.8 -0.4-1.5 0.2-1.6-1.7-2.1 4.3-1.5 8 3.9 2.7 5.2C254 109.3 251.8 102.6 251.8 102.6zM264.2 134.7c1.7-0.2 4.3 0.7 5.2 0.2 -12 6.3 4.2 13.7 5.9 4.4 -0.8 4.7-3.2 9.5-8.7 9.3 -5.2-0.2-8.3-4.4-6.8-9.3 0.6-2 1.8-3.6 3.9-4.4C263.9 134.8 264.1 134.8 264.2 134.7zM275.5 131.2c-3.6 0.6-5.6-0.9-5.7-4.5 0-5.1 5-7.2 9.4-5.8 1.9 0.6 4.5 2.1 4.9 4.3 0.8 3.7-3.4 4.3-4.1 6.1C283.1 123.3 269.1 123.4 275.5 131.2zM279.9 152.1c-2 0.4 4.5 6 5.5 6.3 2.9 0.9 7.4 0.4 9.3-2.4 -2.4 3.4-1.5 7.2-7.2 7.6C282.7 164 273.8 153.5 279.9 152.1zM294.4 100.2c-4.5 0.9-8.8 2-10.5-3.6C287 96.1 293.2 96.8 294.4 100.2zM282.4 105.5c3.6 0.6 7.1 1.5 10.4 2.8 2.5 0.9 7 2 9 3.3 2.2 1.5 1.3 1.7 0.8 3.7 -1.3 4.7-9 6.7-13.5 5 1.3-3 2.8-6.8-0.6-9 -2.8-1.8-3-0.2-4.8 1.3 -2.1 1.8-1.5 2.4-4.7 2.3 -3.9-0.1-10.8-2.2-10.3-7C269.1 103.2 279.7 105.1 282.4 105.5zM276.7 93.3c-4.2 2.1-8 0.5-10.9-2.7 -1.5-0.7-5.6 0.5-6.3-1.6C265.1 88.8 271.7 90.8 276.7 93.3zM260.9 92.8c-4.8 5.2-11.1 1.9-15.6-1.6C249.3 89.2 257.8 89.2 260.9 92.8zM228.4 125.5c2.1 1 2.5 3.2 5.5 3.4 3.2 0.2 12.7-3.3 6.9-6.4 2.8 1.5 9.4-3 5.8-5.5 -2-1.4-6.1 0.8-8.4 0.8 -3 0-5.2-1.3-6.7-4.1 -2.3-4.5 0.3-14.2 6.9-10.7 -6 1.8-6.6 10.8-0.1 12.2 4.7 1 8.1-4.2 6.6-8.2 1.7 4.6 1.4 4.6 6.4 5 2.7 0.3 7.6 0.8 9.1 3.4 -2.9-0.2-6 1.2-5.1 4.7 0.5 2.2 4.6 4.1 5.5 1.4 -1.4 4-4.6 7.5-9.4 7.6 2.3-2-0.2-3.6-2.3-3 -2.9 0.8-2 2.9-3.2 4.7 -1.2 1.9-4 1.8-5.4 3.4 1.9-2.4-2.8-3.4-4.4-2.1 -2.9 2.4 0.2 4.7 2.9 3.8 -1.8 2.5-4.6 4.5-7.7 5.2 -1.3 0.3-4.2-0.5-5.2 0.1 12.3-7.6-9.6-13.5-7.6-4.3 -3.4-1.3 0.5-6.8 1.8-8.5C223.1 124.8 228.3 125.4 228.4 125.5zM215.6 112c4 0.3 2.4-3.2 7.6-1.8 4.3 1.2-2.8 5.7-4.7 6.8 -2.9 1.7-6.2 2.9-9.5 1.2 -3.8-1.9 0.6-3.9 2.9-4.4C209.9 121.4 222.5 112.5 215.6 112zM224.1 166.9c2.5 2.9 7.6 2.4 10.1-0.2 -4.5 7.8-17.5 7.7-14.9-3.3 0.9-3.8 2.6-6.5 7.1-5.8C223.7 159.9 221.5 163.9 224.1 166.9zM226.5 184.5c1.6 0.6 3 1.3 3.7 2.9 0.6 1.3-0.3 3.3 0.1 4.2 -4.2-9.5-19.4 5.8-3.6 6.2 -1.2 0-2.1 2.6-4.8 2 -2.3-0.5-3.5-2.4-5.5-3.5 0.4 4.1-3.7 7-7.5 4.6 2.5-0.5 7.4-5.6 4.8-9.4 -2.1-3.1-7.4 1.4-3.7 3 -10.4-4 6.5-10.9 6.4-4.5C217.7 185.5 221.2 182.5 226.5 184.5zM218.8 217.4c4.1 5.7-2.2 5.7-6.5 5 -2.3-0.3-5.4-0.6-7.5-1.5 -2.1-1-6.7-5.4-2.6-7.2 2.1-0.9 3.6 1.9 5.2 2.8C211.5 218.8 215.4 212.7 218.8 217.4zM216.9 241.2c1.4-0.4 3.1-0.5 4.8-0.2 1.1 4-0.6 7.3 2.9 9.2 4.6 2.5 10.4-3.6 13.9 2.1 4.4 7.3-13.2 7.9-16.6 7 7.4-2.3-7.2-13.2-5.7-3.6 -3-1.2-4.4-3-4.6-6.3C211.3 245.1 213.5 242.2 216.9 241.2zM224.3 97.2c-0.9 5.6-6.6 5.3-10.8 3.7C215 97.1 220.9 96.6 224.3 97.2zM221.8 93.1c-5.8 1.8-7.8 5.8-14.6 6.2C210.8 96.5 217.5 93.9 221.8 93.1zM207.1 103.9c0.3 2.9-2.2 5.1-4.5 6.9 -1 0.8-8.4 3.8-8.5 4.1C195.5 110.7 202.3 103.2 207.1 103.9zM195.9 132.1c0.4 0.7 0.9 1.2 1.5 1.6 7.9 5.3 15.3-9.4 3.3-9.8 3.6-5.3 17.2 1.9 11 8.8 -2.7 3-7 5.3-10.8 6.6 -2 0.7-4.6 1.5-6.1-0.1C193.2 137.5 194.3 133.4 195.9 132.1zM192 155.6c2.3-0.9 0.9-6.7 2.3-8.5 2.7-3.5 8.9-1.5 10.8 2 -4.3-1.8-8.7 2.4-4.6 5.8 2.8 2.3 7.5 2 7.7-2.3 -0.1 1.5 2.8 3.8 2.8 5.9 0 2.3-1.3 3.2-2.4 4.9 -2.9 4.3-1.2 6.9-2 11.9 -0.2 1.3-2.3 7.5-3.9 4 -0.9-1.8 1.4-3.7 1.8-5.3 0.4-1.6 0-4 0-5.7 -0.7-0.2-5.2 0.9-5.5 1.3 1.7-2.7 1.8-7.1-1.8-7.9 -5-1.2-6.3 5.1-3.1 7.5C186 175 183.1 159.3 192 155.6zM168.7 136.6c0.9-1.3 1-3 2.4-4 2.1-1.4 2.9 0.4 4.8-0.5 2.4-1.1 4.2-4.8 3.4-6.5 -0.4-1-1.7-1.4-4-0.5 1.9-0.9 5.8-4.7 8.3-3.2 3.7 2.2-0.8 7.9-2.7 9.8 -3 3-7.8 3.4-10.8 6.3 -3.1 3-3.8 9-8.8 9.6C162.2 142.7 166 140.3 168.7 136.6zM170.6 163.8c-2.7-1.8-0.4-5-1.5-6.2 3.8 4.4 7.5-3.8 2.5-2.8 1.8-3.5 4.7-6.6 6.5-9.9 -3 5.7 9.2 3 2.3-1.5 4-2 5.2 3.8 3.9 6.2 -1.4 2.5-4.6 3.6-6.1 5.9C177 157.1 174.3 166.2 170.6 163.8zM166.6 176.9c-10.9-0.6 1.9-9.8 3.3-7.4C171.7 172.5 170.8 177.1 166.6 176.9zM162.6 187.4c2.8-1.9 6.7-1.2 7.9 1.2 0.5 1 0.6 2.4-0.1 4 -1.2-3.5-6.8-5.6-8.2-1.3 -1.3 3.7 3.9 7.2 6.3 4 -2 2.5-1 14.1-5.6 13.6 -3.3-0.3-5.4-8.9-5.5-11.4C157.3 193.8 159.5 189.5 162.6 187.4zM144.7 173.6c-1.6-3.2 1.2-8.3 2.7-10.9C149.3 165.8 146.3 170.6 144.7 173.6zM150.3 165.9c-0.9-4.6 0.5-8.2 5.6-9.3 2.5 3.7 0.6 12.5-4.5 11.9 -3.4 5.1 0.9 9.9-5.6 10.8C145 173.2 151 169.4 150.3 165.9zM146.6 194.9c0.4-4 2.7-5.7 3.7-9.1 1-3.4 1.1-12.6 7-12.5 1.9 0.1-2.9 12.8-3.3 13.8 -1.3 3.4-1.6 5.2-1.6 8.7 0 1.9 0.2 6-2.4 6.5C146.3 202.9 146.5 196.8 146.6 194.9zM156.6 256.3c-1.3-0.9-3.3-2.2-4.3-3.9 4.5-3.1-0.1-6.5-1.8-9.1 -1.2-1.8-1.5-4.9-0.7-7 4 1.4 4 3.4 4.7 6.7C155.3 246.8 157.3 252.4 156.6 256.3zM158.9 241.4c-2.9-1.9-7.8-13.1-1.1-11.6 7.5 1.7 3.1 9.9 6.7 12.4 2.7 1.9 8.4 9.2 2.3 11.1C160.5 255.1 161.5 243.1 158.9 241.4zM167.3 270.7c5 1.6 6 2.7 7.3 7.8C171.1 277.5 168.1 274 167.3 270.7zM179.3 273.6c-6 0.8-8.3-2.5-8.4-8C174.3 260.9 180.8 270 179.3 273.6zM174.6 228.1c1.8 2 5.1 9 3.6 11.6 -2.1 3.6-5.3-0.4-7.1 0 7.2-1.5 1.5-8.2-2.2-4.5 -0.4-2.8 0.1-5.8 2.8-7.1 -5-4.7-6.6-10.5-1.7-16 1.9-2.1 6.8-3.7 8.4-0.2 -7.8-3.6-2.9 11 1.1 3.7 -0.5 1 0.6 2-0.7 3.3 -1 1-2.7 0-3.9 0.8 -2.3 1.5-3 4.4-1.2 6.7 -1.3-4.7 5.2-1.5 6.6-4.4C179.1 225.5 178.5 227.2 174.6 228.1zM180.2 184.1c-1.5-2.6-0.3-5.4 1.7-7.4 1.5-1.5 4.6-3.5 6.9-3 4.1 0.8 1.3 3.2 2.9 5.2 -4.8-5.8-16.3 3-3.3 5.2C189.1 188.5 181.6 186.6 180.2 184.1zM189.8 270.4c-2.6-1.1-4.2-4.8-6-6.9 -1.9-2.2-3.3-3.4-2.7-6.8 4.8 3.4 5.8-9.2 0.8-6.6 0.7-2.8 6.1-2.1 7.6-0.5 2.3 2.3-0.3 4.9 0.7 7 0.7 1.6 2.2 2.1 3.9 2.2 -11.1 4 1 9.7 2.1 5.4C195.5 267.5 195.6 273 189.8 270.4zM193.6 291.2c3.5-2.3 9.1 1.5 10 4.9C198.3 298 195.9 295.6 193.6 291.2zM229.9 300.3c1-3.8 12.3-1.6 12.2 2.7C242 308.7 229 303.8 229.9 300.3zM245.1 288.9c-4.7 0.3-3.9-3.7-7.3-5 -0.9-0.3-11.6 5.1-10.5 0 -0.9 4.3-2.5 3.5-5.6 2.9 -2.4-0.4-5.7-0.5-7.6-2.2 -2.5-2.2-2-4.6-5.8-5.8 -3-0.9-7.6-0.1-7.1-4.7 0.3-3.3 3.4-3.6 6.4-3.8 7.8-0.5 4.8 5.9 9.6 8.5 4.1-0.4 6.8 1.4 9.8 3.9 0.5-4.6 6.2-6.2 10.2-5.3 2.6 0.6 4.1 1.9 5.5 4C243 282.2 245.9 288.9 245.1 288.9zM244 215.2c-6-0.3-0.6-6.8-2.9-10.2 -0.8-1.2-2.4-0.8-2.9-2.7 -1.3-4.6 6-6.3 6-0.9 4.6 1.8 7.6 0.5 8.9 6.3 0.4 1.6 1 3.7-0.1 5.3 -0.7 1-3.3 1.5-3.5 1.8C252.2 210 243.4 208.6 244 215.2zM268.6 303.5c-1 1.6-7 2.2-8.7 2.5 -2.8 0.5-7.7 0.6-8-3.4 -0.2-3.4 3.9-2.9 6.2-3 -5.7 3 7.4 5.3 4.2-0.4C262.7 300 270.8 300.2 268.6 303.5zM272.9 307.7c1.8-3 7.8-3.7 10.7-2.4C282 310.1 276.5 309.8 272.9 307.7zM276.6 283.9c-5 0.8-6.7 6.4-12.5 6.1 -2.1-0.1-3.4-0.5-2.5-2.4 0.5-1.1 2.3-0.9 3-1.6 0.8-0.8 0.6-1.8 1.3-2.8 3.1-4.3 7.6-6.1 13-5.4 1.8 0.2 10.2 1.6 11 3.7C292.4 287.3 279.2 283.5 276.6 283.9zM284.8 259.1c3.4-0.6 0.4-3.8-2.3-3.6 -2.9 0.3-6.2 4.3-1.5 3.7 -2.2 1.7-5.6 1.2-7 3.4 0.2-0.3-2 7.1-2.2 5.9 -0.5-2.4 0.2-4.4-2.5-4.7 -3.5-0.4-1.4 1.7-2.8 2.5 -2.7 1.7-4.3 1.4-6.5-0.8 -6.2-6.5 5.3-4.6 8.4-6 -2.4-2.5-6-3.1-9.4-2.3 -2.7 0.6-5.1 2.8-7.3 0.2 -1.2-1.4-1.3-7.1-0.8-8.8 2 4.3 8.9 0 9.4-3.4 0.6-3.8-4-7-7-3.9 -0.3-3 1.1-5.5 3.6-7.2 3.5-2.4 4.7-1 8.2 0.3 0.2 0.1 6.6 2.9 6.4 2.6 2.2 3.3-2.4 6.9-0.8 10.4 2.7 6.1 10.3-1.8 14.9-0.1 0.6 0.2 2.5 3 3.4 3.6 1 0.7 4.1 1.6 4.6 2.8C295 257 287.9 258.7 284.8 259.1zM286.3 239.1c0.7-1.9 2.6-4.1 4.7-4.5 3.4-0.8 2.9 1.5 5.1 2.6 -4.4-2.2-7.2 7.8-0.4 5.1C293.7 247.8 283.9 246 286.3 239.1zM295 303.8c1.9-2.7 6.6-4.1 9.8-4.3C302 303.7 299.8 303.4 295 303.8zM310.6 277.3c-0.8 0.3-1.6 0.7-2.4 1.2 0.7-0.9 1.2-1.9 1.3-3 -2.4 1.8-7.4 2.3-8.1 5.8 2 0.8 4.6-0.3 6.5-1.2 -1.9 0.9-5.3 7.6-8.7 5.5 -4.2-2.6 2.6-8.1 4.5-9.4 4.2-3 7.2-3.7 7.8-9.2 4.5 6.5 7-3.7 4.7-3.5 2.6-3.8 7.5-1.4 5.5 3 -1.4 3.1-3.8 6.4-6.4 8.7C313.9 276.4 312.2 276.7 310.6 277.3zM316.4 287.2c-0.5-4.2 5.1-8.6 9.1-7.2C325.5 285.6 321.7 287.6 316.4 287.2zM327.1 243.6c7.7-3.4-1.4-11-3.4-6.4 -0.1 0.6-0.2 0.5 0 0 0.5-2.4 1-4.7 3.1-6.3 0.7-0.5 7.2-2.3 6.9 0 0.3-2.1 0.9-8.9 2.3-10.3 4.6 7.2 9.2-3.9 2.6-2.9 2.3-4.9 10.4-4.6 12.3 0.2 1.9 4.8-1 8.8-6.1 9.1 -1 4.8-3.9 10.6-9.2 7.9C336.1 243.8 327.1 243.6 327.1 243.6zM333.6 277.3c-0.1-3.6 3.7-7.2 7.1-8.1C340.5 274.4 338.1 275.6 333.6 277.3zM337 263.7c0.6-5.1 6-7.7 8-11.6 1.1-2.1 1.5-10.7 6.4-7.6C356.1 247.4 339.8 263.1 337 263.7zM345.6 207.5c7.1 2 3.4-7.2 0.3-3.3 -1.9-1.4-1.7-3.7-1.3-5.8 0.3-1.4 2.7-4.4 2.7-5.2 -0.1 3.5 3.6 4.2 5 1.4 1.4-2.9-0.9-6-4-5.9 2.9-0.1 4.2-2.4 7.1 0.4 2.2 2.2 1.6 4.9 1.5 7.7 -0.1 3.5 0.1 8.8-2.2 11.8C351.8 212.4 348.8 209.5 345.6 207.5zM356.8 239.7c-1.8-2.6-0.2-9.5 3.4-10.3C361.1 233.1 362.2 238.5 356.8 239.7zM365.2 213.6c-1.4 4.3-6 5-5.3-0.4 0.8 1.2 1.9 1.9 3.3 1.6 0.1-1.9 0.3-4-0.4-5.7 -0.9 0.6-1.5 0.3-2.2 1.7 -0.2-2.2 0.2-4.4 2.6-5l0.2-0.2C366.2 206.5 365.9 211.5 365.2 213.6z"/><radialGradient id="SVGID_4_" cx="248.5" cy="195.2" r="99.4" gradientTransform="matrix(0.9947 0 0 0.993 5.5574 6.5023)" gradientUnits="userSpaceOnUse"><stop offset="0" stop-color="#F2EEFA"/><stop offset="0.4" stop-color="#EFEAF8"/><stop offset="0.8" stop-color="#E7DCF3"/><stop offset="1" stop-color="#E3D5F0"/></radialGradient><path fill="url(#SVGID_4_)" d="M231.2 158.5c0.8 2.1 0.4 4.5-0.6 6.4 -0.8 0.5-1.7 0.9-2.7 1.1 0.5-2.3 1.4-3.8-1.3-6.2 -0.9-0.8-3.2-1.7-5.1-1.7 0.6-1.1 1.4-2.2 2.4-3.1C226.7 154.7 230.1 155.5 231.2 158.5zM306.2 200.5c1.6 0.6 3.4 0.3 4.7-0.6 -3.9-2-6.2-6.8-3.5-9.7 -1.4 0.3-2.9 1.1-4.2 2.5C303.1 192.3 301.6 198.6 306.2 200.5zM238.5 225.8c2.6-3.6-1.6-5.3-4.7-3.3l-3.9-1.4c-5.9-4.5-7.4 6-2.7 7.9C230.1 230.1 236.6 228.4 238.5 225.8zM256.1 175.9c8.3-1.8 3.6-9.3-2.7-7.9 0.6 0.1 0.9 0.4 1.5 0.5 3.9 6.3-9.9 8.9-9 2.7 0 0-0.1 0-0.1 0.1C240.8 175.6 253.5 176.4 256.1 175.9zM250.4 152.3c-0.4 0.1-0.8 0.2-1.2 0.5C249.6 152.6 250 152.5 250.4 152.3zM274.9 210.2c-0.2 0-0.5-0.1-0.7-0.1C274.3 210.2 274.5 210.2 274.9 210.2zM249.1 152.8c1-0.8 1.6-1.7 1.8-2.6 -3.1 1.4-7.9-0.8-9.4-3.8 -1.1 0.6-2.1 1.3-2.9 2C238.9 152.5 245 153.9 249.1 152.8zM274 219c8 1.5 20.8-7.5 10.1-14.2 -7-4.4-14.4 4.2-9.9 5.3 -0.5-0.3 5.4-1.3 5.2-1.3C285.7 212.3 277.2 218.4 274 219zM320.8 148.3c0 0-1.7-2.2-1.7-2 -3.6-3.2-6.3 3.9-4.1 7.4 3.7 5.8 7.7 4 10.3-0.7 0-1-0.2-1.9-0.6-2.4 -1.4 1.8-5.7 3.1-7.2 0.7C315.9 148.9 318.8 147.5 320.8 148.3zM167.2 241c-1-1.2-2.7-3.2-3.2-4.6 -0.6-1.7 0.4-3.8-0.3-5.5 -1.5-3.7-5.2-4.6-8.6-3.9 0.1 0 0.2 0 0.3 0.1 7.5 1.7 3.1 9.9 6.7 12.4 2 1.4 5.6 5.7 4.9 8.7C168.9 245.8 168.4 242.5 167.2 241zM237.5 268.5c-1.9-0.4-5.7 0.4-7.2 1.6 -1.8 1.4-1.7 3.2-2 5.2 0.3-0.1 0.7-0.2 1-0.4 0.7-4.1 8.7-3.6 7.6 0.6 0.4 0.2 0.9 0.5 1.2 0.8C240.7 273.8 242 269.5 237.5 268.5zM195.5 166.1c0.5 0.2 0.9 0.3 1.3 0.3 1.4-2.7 1.2-6.5-2.2-7.3 -5-1.2-6.3 5-3.2 7.5 0.2 0.1 0.4 0.2 0.7 0.3 0.5-1.5-0.4-4.4 2.2-4.4C196.3 162.5 197 165 195.5 166.1zM215.7 294.5c-2.4 0-4.8-0.5-6.6-2.2 -1.9-1.8-2-3.5-5.3-3l-2.2 1.6c1.9 1.1 2.8 4 5.3 4.9C209.3 296.6 213.6 295.7 215.7 294.5zM163 206.9c4.8-1.3 4.9-7 1.9-9.8 -0.7 4.2-1.2 9.5-4.4 9.2 -1.9-0.2-3.4-3.1-4.3-6C154.8 204 158 208.2 163 206.9zM185.2 192.2c-2.3-1.6-3.2-2.1-0.7-3.3 2.4-1.1 3.9-0.1 5.4-2.7 0.6-1.1 0.9-2.2 0.8-3.5 -5.4 4.5-13.2 5.9-16.4-2.2 -0.6 1.5-0.7 4.8 0.3 6.3l2.2 4.4C175.3 195.6 184.2 196.7 185.2 192.2zM278.9 162.4c-1.5-0.7-3.9-2.2-5.6-1.8 -1.9 0.4-2.2 2.4-3 3.8l8.3 1.1c5 0.1 5.8 7.3 4.5 10.9 4.1-1.2 9-7.8 8.2-12.2C286.3 166.7 283.5 164.5 278.9 162.4zM193.5 129.5c0.4 0.7 0.9 1.2 1.5 1.6 0.8 0.5 1.6 0.9 2.4 1 -1.8-1.9-1.3-5.8 0.8-7.3 1.1-0.8 3.7-1 5.9-0.8 -0.8-1.5-2.6-2.6-5.8-2.7C191.4 121.4 193.3 129.6 193.5 129.5zM161.8 168.9c2.1-1.8 5.1-3.2 5.7-2 1.8 3 0.9 7.6-3.3 7.4 -0.6 0-1.2-0.1-1.7-0.2 2.8 4 10.3 0.2 10.3-5.2C172.6 160.9 163.3 163 161.8 168.9zM317.2 142.1c4.9 2.5 13 2.1 12.9-4.7 -0.8 6.1-11.8 4.4-13.7 0l-3.1-6.3C310.7 134.1 314.1 140.5 317.2 142.1zM173.8 134.5c4.2-2.2 6.6-4.3 7.1-8.5 -0.8 1.2-1.8 2.3-2.4 2.9 -3 3-7.8 3.4-10.8 6.3 -1.7 1.6-2.7 4.1-4 6.2 0.1 0.2 0.2 0.4 0.3 0.6C166.9 139 169.9 136.5 173.8 134.5zM221.3 275.6c-1.2-2.4-5.4-4.9-7.6-6.5 -1.5-1.1-4.2-2.6-6-2.7 -1.4-0.1-2.6 0.6-3.8 1.3 0.4 0 0.7-0.1 1.1-0.1 7.8-0.5 4.8 5.9 9.6 8.5 3-0.3 5.3 0.6 7.4 2.1C222.1 277.6 221.9 276.7 221.3 275.6zM292.1 291.4c-2.9 1.1-5.2 1.2-8.2 1.6 -3.4 0.5-4.8 2.7-7.6 4.4l-5 2.5c2.6 1.8 6.5-1.5 9.1-2.4C285 296 288.9 295.5 292.1 291.4zM180.5 232.3c2.1 2.1 1.4 5.1 0.6 7.3 4.4-0.5 4.6-9.2 1.8-11.4 -3.2-2.6-9.5 0-5.8 3.2L180.5 232.3zM274.3 284.9c3.5-1.2 11-0.8 14.3 0.6 -0.3-1.4-1.3-2.7-2.6-3.7 -3.3 0.8-10-1-11.8-0.7 -5 0.8-6.7 6.4-12.5 6.1 -0.4 0-0.8-0.1-1.2-0.1l-0.1 0.1c2.5 0.8 4.8 1.1 7.4 0.6C270.5 287.5 272 285.7 274.3 284.9zM340.5 239.7c-2 0.2-4.9 1.6-5.9 3.3l-3.1 6.8c-1.6 1.5-3.2 3.3-4.3 4.9C337.4 255.3 336.2 245.2 340.5 239.7zM286.1 108.7c-2.8-1.8-3-0.2-4.8 1.3 -0.9 0.7-1.3 1.3-1.7 1.6 2.3-0.2 4.5-0.5 6.4 0.4 1.1 0.6 1.7 1.2 2 1.9C288.5 112 288.2 110.1 286.1 108.7zM295.5 259.3c2.7-4.4 0.8-10.8-3.5-13.1l1.1 7.1c3.6 7.8-17 4.4-15.8 12.2C282.5 261.4 291.8 265.4 295.5 259.3zM313.5 117.6c1.7 1.4 6 2.5 6.7 0.4 1.2-3.3-4-5.1-5.9-5.1l-1.8-3.2c-2.9-3.9-4.8-2.8-7.3-1.4C309.2 108.7 310.2 114.9 313.5 117.6zM242.7 286.3c-4.7 0.3-3.9-3.7-7.3-5 -0.4-0.2-3.3 1.1-6 1.8 1.1 0.9 2.1 2 3.4 2.9 3 2 9.4 4.1 12.2 0.6C244.3 286.6 243.5 286.5 242.7 286.3zM291.8 234.2c-3.1 0.9-4.2 7.6 1.6 5.3C293.2 240 295.2 235 291.8 234.2zM299.7 201.5l-1.7-6.3c-3.7-2.6-8.3 3.6-4.3 6.5C295.1 202.7 299.3 204.1 299.7 201.5zM217.8 256.1c0.8 0.3 1.8 0.3 2.7 0.2 5-2.9-7.7-12.1-6.7-3.5C214.7 254.2 216.2 255.5 217.8 256.1zM189.4 120c2.7 0.4 4.6-1.2 6.9-2.1 1.7-0.6 4-0.7 5.3-2 1.2-1.2 1.8-3.6 1.1-4.9l-10 5.5C191.2 117.1 189.8 118.4 189.4 120zM194.4 259.6c-4.1 1-4.1-2.4-0.5-3.3h-2.1c-9.7 3.5-1.3 8.4 1.5 6.4 0.2-0.2 0.4-0.4 0.6-0.7 0.1-0.1 0.1-0.2 0.1-0.4 0 0.1 0 0.2-0.1 0.3C194.3 261.3 194.5 260.5 194.4 259.6zM236 100.4c-1.8 0.6-3.2 1.8-3.9 3.3 3.4-0.9 7.9 3.2 9.7 6.4 0.6-1 1-2.1 1.1-3.2C242.4 102.8 235.6 100.1 236 100.4zM332.9 172.9c5.9 2.3 6.4-8.8 0.9-7.6l-2.5 2.7C328.9 168.7 331.5 172.3 332.9 172.9zM349.9 191.9c1.3-2.6-0.5-5.4-3.2-5.8 -1.4 0.1-2.5 0.2-3.4 2.2 -0.8 1.7-1 3.9-0.2 5.4 0.8-1.3 1.7-2.7 1.7-3.2C344.8 193.9 348.6 194.6 349.9 191.9z"/><radialGradient id="SVGID_5_" cx="248.7" cy="194.3" r="110.3" gradientTransform="matrix(0.9947 0 0 0.993 5.5574 6.5023)" gradientUnits="userSpaceOnUse"><stop offset="0" stop-color="#F2EEFA"/><stop offset="0.4" stop-color="#EEEAF8"/><stop offset="0.7" stop-color="#E1DCF2"/><stop offset="0.9" stop-color="#D7D2ED"/></radialGradient><path fill="url(#SVGID_5_)" d="M279.9 176.6c4.1 5.2 10.9-3.7 12.7-6.4 0.2 5.2-2.6 5.4-4.9 8.9 -2.7 4 6.1 7.5 8.8 8.9 2.4 1.2 3 3.2 2.9 5.8 -0.8-1.4-1.3-2.7-3.1-2.4 -2.7 0.5-1.8 4.3-2.7 6.1 -1.7 3.3-1.5 2.6-0.1 6.4 1.3 3.3-0.9 8.1-4 9.7 1.8-2.6 3.4-4.8 0.9-7.5 -1.6-1.7-8.3-3.5-10.5-2.8 -1.2 0.4-1.5 1.3-2.6 2 -6.5 4.3-15.7-3.4-19.4-8.2 -1.7-2.1-4.1-6.2-2.8-9 1.6-3.5 6.4-1.7 9-0.5 3 1.4 3.3 5.2 7.3 3.7 0.6 3.6-3.8 3.2-5.9 1.8 -1.4-0.9-4.9-6.3-6.8-3.2 -1.9 3.1 3.8 7.9 6.5 8.2 3.8 0.5 8.4-1.6 10.5-4.6 0.4 2-1.7 4.4-3.1 5.8 -1.6 1.6-4.4 4.6 0.2 4.4 3-0.2 4.5-4.3 7.7-3.9 3.4 0.5 5.1 2.2 8-0.7 2.8-2.8 4.1-7.3 1.5-10.6 -2.9-3.7-7.7-5.4-11-8.8 -3.6-3.7-3.3-10.3 2.9-11.6C280.3 168.6 279 175.4 279.9 176.6zM242.6 185c1-13.2-21-7.1-18.3-20.3 1.5-7.2 11.7-9 17.5-10.9 -3.2-2.9-5.6-4.8-3.3-9.7 -1.7 0.3-2.9 2.8-3.2 4.3 -0.2 1 0.4 2.3 0.1 3.3 -1.3 4.3-7.6 5.4-10.6 8.4 -3.5 3.4-3.7 7.4-1 11.4 3.1 4.8 7.9 4.4 12.7 6.4 4.8 2 2.3 6.6 2 10.5 0.1-0.9-6.1-1.6-7.1-1.6 -2.9-0.1-6.5-1.2-8.4 1.8 -1 1.6-2.5 4.1-1.4 6 0.8 1.5 2.4 1.3 3.7 2.2 2.6 1.9 0.9 4.1 2.3 6.2 2.2 3.1 6.5-0.1 8.6-1.6 2.9-2.1 7.3-4 9.5-6.6 1.5-1.8 2.4-3.9 3-6.1 0.1-0.4 0.2-5.2-0.5-4.3 -3.2 4.5-2.9 9.6-9 11.9 -1.9 0.7-2.7 0.5-4.3 1.8 -1 0.8-1.3 2.3-2.8 2.6 -3.4 0.7-3.3-3.5-4.3-5.5 -0.7-1.3-3.8-3.8-2.3-5.6 1.8-2.1 8 1.2 9.6 2.3 1.1 0.8 2.1 1.2 3 1.2C240.9 193.3 242.3 189 242.6 185zM272.9 125.8c-8.1-0.4-14.2 1.4-18.8 8.2 -4.6 6.8-5.8 16.7 4 19.1 5.4 1.3 17 1.3 12.1 10.3 -1.6 2.9-4.6 2.8-7.4 1.7 -3-1.3-6.4-0.5-2.9 2.9 9.2 9 25.6-15.1 1.6-16.6 -9.3-0.6-11.1-8.1-7-15.3C258.3 129.7 268.2 125.9 272.9 125.8zM356.5 209.5c-2.2 8.2 2 17.2-2 25.1 -2.3 4.4-6.3 6-10.5 8.2 -4.6 2.4-6.8 6.1-9 10.5 -4.1 8.3-7.2 17.5-14.7 23.6 -1.7 1.4-22.6 13.9-21 15.4 -0.9-0.9 20.6-13.5 22.3-14.8 7.7-5.9 9.7-15.6 14-23.9 1.8-3.4 3.7-6.8 6.9-9.1 3.8-2.8 9.8-4.2 12.6-8.3C360.6 227.9 355.2 217.2 356.5 209.5zM302.2 281.1c-9.8 0.3-14.7 10.1-22.8 14 -8.8 4.3-24.3 9.6-33.6 5.1 9.8 4.7 23.6 0.2 32.9-3.9C286.7 292.8 293.4 281.4 302.2 281.1zM201.5 280.7c5.7 5.7 5.9 10.7 14.9 12.5 9.8 1.9 17.6-0.3 26.7-1.3 -9.1 1-16.5 2.4-25.6 0.7 -9.6-1.8-10.4-8-16.6-14 -5.8-5.6-12.5-10.1-18.9-14.9 -1.8-1.3-18.3-16.5-17.9-16.8 -2.2 1.3 13.6 15.4 15.2 16.6C186.7 269.2 194.8 274.1 201.5 280.7zM250.6 307.4c-4.1-2.1-8.8-1-13.1-2.2 -5.3-1.4-8.9-5.6-14.3-6.8 -6.3-1.3-26.7-0.6-27.9-9.5 1.2 8.9 16.5 8.8 23.2 9.6 6.8 0.8 10.4 4 16.2 6.9 2.8 1.4 6.1 1.6 9.2 1.8C244 307.3 252.2 308.2 250.6 307.4zM159.7 139.1c-2.6 2.4-8.6 29.6-8.7 29.6C153.3 168.6 156.8 142 159.7 139.1zM153.3 249.9c1.6-11-8.6-19.6-2.4-30.1 -5.3 9.1-1.5 16.4 1.6 25.3 0.3 0.8 0.4 18.7 5.1 16.8C157.2 262.1 153.1 251.5 153.3 249.9zM183.6 279.7c-2.9-0.5-5.8-0.3-8.6-0.8 -1.2-0.2-7.6-4.5-7.1-4.6 -1.9 0.5 2.7 5 3.2 5.3 2.5 1.5 5.6 1.6 8.4 2 2.9 0.4 5.8 0.9 8.3 2.5 1 0.7 4.6 5.6 5.1 5.5C197.7 288.2 185.4 280 183.6 279.7zM171.3 129.9c6.8-8 14.2-11.6 24.7-12 3-0.1 6.8-0.6 8.8-3.2 4.8-6.4-4.7-4.6-8.1-5.3 1-2.4 14.4-10.4 14.7-11.2 0.2-0.4-32.8 12.3-7.4 13.6 -1.2 6.2-11.2 3.7-15.6 4.3C179.6 117.3 175.6 124.8 171.3 129.9zM149.5 214c-0.6-6.3-5.7-11.7-5.7-18 0-2.1 7.3-16.5 7.7-16.2 -1.2-0.7-9.5 14.2-9.6 16.3 -0.2 3.7 1.3 7.2 2.8 10.5C145.2 207.4 149.7 216.3 149.5 214zM177 228.3c3.2 1.8 7.7 2 11.2 0.9 2.6-0.8 5.8-3.6 7.4 0.2 0.8 1.9 0.9 6 4.8 3.9 1.9-1 1.5-4.2 3.3-5.1 2.1-1.1 4.7 2 5.8 3.5 3.1 4.3 1.8 9.8-1.8 13.4 -1.4 1.4-13.6 7-12.5 8.3 2.3 2.6 7.7-3.4 8.9-3.9 1.4-0.6 0.3-1.4 2 0 0.6 0.5 1 1.7 1.3 2.4 0.7 1.9 2.1 5.6 4.8 3.6 -3.9-4.5-2-8-0.1-12.8 0.6-1.5 0.6-3.7 2-4.8 0.9-0.7 5.9-1.3 6.7-0.6 -1.9-1.8-4.6-1.3-6.6-2.6 -1.9-1.2-2.5-4-4-5.7 -1.1-1.3-4.8-4.6-6.8-4.2 -1.8 0.3-1.3 1.6-2.3 3.1 -2.8 4.4-2.7-1.1-2.8-3.3 -9.2 1.1-19.4 5.4-25.9-3.6 -3.2-4.4-7.4-11.8-2.7-16.5 4.6-4.6 9.9-7.7 10.6-14.9 0.5-4.9-1.9-8.7-3.1-13.2 -0.4-1.6-0.8-8.5 2.4-7.6 1.4 0.4 1.2 2.1 3.2 2.2 1.6 0 3.2-1.3 4.4-2.2 -1.6-0.1-4.7 0.6-5-1.7 -0.3-2 1.9-1.8 3.1-1 -1-7.3-9-1.6-10.6 2.3 -1.4 3.3 0.8 6.8 1.9 10 1.5 4.2 2.8 8.5 1.5 12.9 -0.4 1.3-1.1 3.7-2.7 4 -1.3 0.3-3.7-1.5-3.7-2.9 0 6.2-4.8 9.6-5.9 15.2C164.3 215.2 170.8 224.9 177 228.3zM285.6 266.8c4.5-2.3 6.8 0.2 11.3 0 4.5-0.2 8-1.9 12 0.9 1.9-4.7-5.5-4.9-8.7-4.7 -0.8 0.1-2.8 1.5-3.7 0.7 -2.2-1.9 7.2-3.1 8-3.1 4.2 0 9.9-1 13.2-3.9 2.4-2.1 2.2-5.2 1.8-8.2 -0.4-3.4-0.3-5.9 1.4-9.1 -3.6 2.8-3.9 7.8-4.5 11.8 -0.3 2-0.2 2.8-2.2 3.7 -0.5 0.2-4.9 0.3-4.9 0.8 0.3-2.4 2.2-4.2 2.2-7.2 -0.1-3.4-0.4-5.3 3.9-5.3 -1.4-0.1-2.9 0.1-4.1 0.8 -2.2 1.1-1.4 0.8-2 3 -1.8 6.3-1.2 10.3-9 11.4 -11.6 1.6-20.2 11.4-32 12.2 -6 0.4-11.8-1.7-17.8-1.1 -6 0.6-11.5 1.9-17.4-0.2 -4.8-1.7-3.1-6.3 1-8.1 2.9-1.3 4 0.4 6.6 1.6 3.3 1.5 3.9 1.2 6.7-0.6 2.1-1.3 5.3-3 6.3 0.6 1-5.1-3.8-3.7-6.8-2.3 -1 0.4-2.4 1.5-3.4 1.6 -2.1 0.3-2.4-1-3.7-1.7 -2.9-1.6-6.3-1.6-9.1 0.3 -1.1 0.8-2.4 2.9-3.7 1.1 -1.4-2 4.1-8.4 5.1-10 2-3 4.7-6.7 4.3-10.5 0.6 5.5-6.6 11.3-9.3 16 -4.9 8.4 3.7 14.5 11.6 15.2 1.9 0.2 7.6-1.6 8.9 0.3 1.8 2.4-2 3.6-3.8 3.5 1.9 0.6 5.9 0.8 7.6-0.3 1.4-0.9 2.7-2.7 0.3-2.8 0.6 0 2.8-1.8 3.9-1.9 1.4-0.1 2.7 0.5 4.1 0.7 4.3 0.8 9.1 1.1 13.4 0.2C277.5 270.8 281.6 268.8 285.6 266.8zM279.4 218.3c-11.9 0.9-18.4 14.4-6.7 20.9 5.3 2.9 11.3 2.6 16.9 1 1.6-0.5 17.7-4.7 17.7-4.6 0-2.2-24.7 3.2-27.5 3 -8.5-0.8-16.3-10-6.6-15.5 8.8-5.1 17.9 1.7 27-1.5 4.1-1.4 7.9-3.9 10.9-7 0.8-0.8 6.6-12.4 3.7-11.6 0.1 0-1 5.7-1.3 6.4 -1.8 3.4-5 5.9-8.3 7.7C295.9 222.2 289.2 217.6 279.4 218.3zM254.5 103.2c8.8-0.6 15.6 4.7 22.7 8.9 9.3 5.5 21.5 4.4 29.9 11.6 7.2 6.2 14.7 18.8 17.1 27.8 1 3.6 1.5 7.3 2.9 10.8 0.4 1 7.4 10.5 8.6 7.3 0.3-0.7-5.6-7.5-6.2-9.2 -1.4-4-1.9-8.3-3.3-12.3 -3-8.8-10.2-18.7-17.2-25 -7.6-6.8-17.4-6.3-26.5-9.6C273.1 110.1 265.4 100.9 254.5 103.2zM333.8 201.1c-1.4-2.8-2.8-6.7-0.4-9.4 2.1-2.3 4.4-1.3 4.8 1.8 0.4 3.5 1.3 6.4 1.5 10 2.5-2.1 2.4-4.7 1.4-7.3 -1.9-4.8-4-10.1 1.1-13.1 3.7-2.2 8.3-4.8 9.5-9.2 1-3.9-8.6-13-9.4-11.7 -1.8 3.1 14.5 7.7 3.8 15.1 -6 4.2-16.9 7.5-18.2 15.8 -0.7 4.3 1.4 8.2 3.9 11.6 2.2 3 5.3 6 1.4 9 -1.6 1.2-7.9 5.3-2.9 6.9 1 0.3 5.7-7.6 9.8-5.9 3.1 1.3 5.2 8.4 5.4 11.3 0.1 2.4-0.9 4.4-2.8 5.9 -3.8 2.9-4.3 4.8 1.2 2.2 5.9-2.8 5.4-8.6 3-13.7C343.6 213.2 337.2 208.1 333.8 201.1zM334.2 133.6c5.9 2 3.2 7.3 4.6 11.7 0.7 2.1 12.2 17.1 13.5 16 1.1-0.9-11.2-13.4-12-15.3C337.8 140.9 340.5 135.8 334.2 133.6zM362.1 194.9c-3.6-5.8 0.1-11.8-2.3-17.7 1.8 4.4-1.8 10.8-0.3 15.8 0.3 0.8 4.2 13.7 2.6 13C365.9 207.6 362.6 195.7 362.1 194.9zM221.7 95.5c8.2-2.3 23.7-6.3 29.8 0.9 2.2 2.6 33.5 5.7 33.3 6.3 1.4-4.7-28.2-5-31.4-7 -1.2-0.7-1.6-3.2-2.8-3.5 -4.3-1-8.7-1.3-13.1-1C232 91.6 224.9 94.6 221.7 95.5zM293.6 99.5c3.5 1.8 29.4 22.8 30.9 21.8C326.8 119.5 294.8 100.1 293.6 99.5zM188 141c1 4.2 6.2 5.1 9.9 4.6 0.9-0.1 3-1.3 3.9-1.1 5.4 1.1 0.3 14.4-1 17.5 -0.6 1.5-1.2 3.2-2.4 4.4 -1 1.1-3.8 1.5-3.4 3.5 0.5 2.7 4.5 2 6.2 2.8 -1.4-4.3 0.8-7.2 2.6-11.4 0.9-2.2 2.4-13.5 6.8-9.2 1.3 1.2 0.2 3.3 1.7 4.1 3.2-4.7 0.5-9.4-5.3-7.4 -0.1-8-6.7-4.9-12.2-6.2 -3-0.7-4.6-3.3-2.4-5.6 2.8-3.1 7.3-5.8 10.7-8.3 1.2-0.9 15.5-11.9 16.6-10 -1.3-2.3-18.2 8.7-19.9 9.7C195.4 131 186.5 134.8 188 141zM267.6 119.5c-11.1-0.4-19.9-7.6-30.9-7.6 5.2 0 11 2.4 15.7 4.9 2.8 1.5 5.7 2.6 8.9 3.2C262.6 120.3 269.3 119.6 267.6 119.5zM299.2 160.4c-1.1-5.8 2.7-11.7 5.9-16.3 -3.3 4.9-9 10.7-8.5 17 0.2 2.6 1.4 5.7 4.2 6.5 2.7 0.8 5.3-1.4 8-1 3.3 0.5 4.9 4.5 5.6 7.3 0.7 2.7-0.6 4.6-0.6 7.2 0.1 3.8 2.6 0.3 3.7 2.3 1.1 2-3.4 7 0.2 8.1 5.2 1.6 3.4-10.6-0.9-11.9 0.9-2.8-0.9-5.5-1.5-8.1 -0.5-2.3 0.1-4.7-2-6.4 -3.1-2.5-6.7-0.6-9.5-0.3C301.6 165.1 299.9 164.4 299.2 160.4zM205.3 182.9c-2 1.7-7.7 4.2-10.3 8.2 -4.3 6.7-3.4 13.9 2.2 19.6 1.6 1.6 6.4 2 4.1-0.1 -2.7-2.5-5.1-5.5-5.8-9.2C193.9 193.6 199.9 187.6 205.3 182.9zM249.3 216.5c-4.1-1.7-8.7-2-13.1-2.4 -5-0.5-9.3-1-13-4.6 -2.7-2.6-3.2-5-4.6-8.5 -0.2 3.4-0.5 7.7 1.5 10.7 1.5 2.3 4.6 5.5 2.9 8.8 0.6-1.2 0.5-2.6 1.9-3.5 1.7-1 4 0 5.5 0.9 1.1 0.7 1.5 1.5 3 1.4 1.6-0.1 2.5-1.5 3.9-2 1.4-0.4 3.4 0 4.8 0.3 3.5 0.7 6.7 2.3 9 4.9 2.1 2.4 2.8 4.9 1.1 7.6 -1.4 2.2-3.4 3.8-2.5 6.7 1 3 2.2 4.5 0.7 7.8 -1.8 3.8-5.3 9.9 0.9 11.8 4.3 1.3 9 1.9 12.2-1.8 1.2-1.4 1.9-3.3 1.8-5.1 0-0.8-0.1-1.7-0.5-2.5 -0.2-0.3-1.4-1.4-1.4-1.6 0.2 3.3-1 6.5-4 8.2 -2.8 1.6-6.4 1.9-7.7-1.6 -1.5-3.9 9.2-7.6 4.7-10.1 -2.6-1.4-4.1-2.8-3.6-6.2 0.7-5.2 7.4-6.4 11.7-6.7 -0.5-2.9-3.2-3.7-5.6-4.7 -1.8-0.7-2.9-1.9-4.1-3.1C253.2 219.4 251.8 217.6 249.3 216.5zM228 284.7c12.5 5 25.3-6.7 37.8-4.2 3.4 0.7 1.1 6.4 6.2 6.9 1.3 0.1 11.4-1.4 10.5-3.5 -0.9-2.2-13.8 6.1-13-1.6 0.6-6.4-10.4-4.4-14.2-3.5 -7.8 1.9-15.6 4.9-23.8 4.5 -3.8-0.2-12-11.2-10.8-11.6C217.6 272.7 226.1 284 228 284.7z"/></g></svg>