<?xml version="1.0" encoding="utf-8"?>
<!-- Generator: Adobe Illustrator 16.0.0, SVG Export Plug-In . SVG Version: 6.00 Build 0)  -->
<!DOCTYPE svg PUBLIC "-//W3C//DTD SVG 1.1//EN" "http://www.w3.org/Graphics/SVG/1.1/DTD/svg11.dtd">
<svg version="1.1" id="Layer_1" xmlns="http://www.w3.org/2000/svg" xmlns:xlink="http://www.w3.org/1999/xlink" x="0px" y="0px"
	 width="500px" height="500px" viewBox="0 0 500 500" enable-background="new 0 0 500 500" xml:space="preserve">
<path id="black" class="black-moon" d="M174.061,29.889c39.796,39.823,39.779,104.377-0.044,144.173c32.849-32.827,32.868-86.072,0.034-118.929
	c-32.827-32.849-86.071-32.868-118.92-0.041c-32.857,32.833-32.868,86.071-0.042,118.921c32.834,32.857,86.072,32.882,118.929,0.049
	c-39.831,39.803-104.383,39.773-144.179-0.05c-39.804-39.832-39.78-104.377,0.05-144.18C69.712-9.964,134.257-9.942,174.061,29.889z
	"/>
<path id="red" class="red-moon" fill="#FF1D25" d="M325.939,470.111c-39.797-39.823-39.779-104.377,0.043-144.173c-32.849,32.827-32.867,86.071-0.033,118.929
	c32.826,32.85,86.071,32.868,118.92,0.041c32.857-32.833,32.868-86.071,0.042-118.921c-32.834-32.857-86.071-32.882-118.929-0.049
	c39.831-39.803,104.384-39.773,144.18,0.05c39.804,39.832,39.78,104.377-0.05,144.18
	C430.288,509.965,365.743,509.942,325.939,470.111z"/>
</svg>
